<!-- Generated by IcoMoon.io -->
<svg version="1.1" xmlns="http://www.w3.org/2000/svg" width="32" height="32" viewBox="0 0 32 32">
<title>catIcon</title>
<path d="M3.25 0.331c0 1.056 0.369 3.006 0.813 4.281 0.194 0.569 0.25 0.819 0.25 1.15 0 0.362 0.156 1.338 0.287 1.781 0.025 0.1 0.013 0.144-0.044 0.144-0.050 0-0.037 0.031 0.037 0.081 0.063 0.050 0.094 0.119 0.069 0.156-0.019 0.037 0.019 0.1 0.088 0.137 0.144 0.081 0.169 0.244 0.031 0.281-0.3 0.094-0.313 0.113-0.125 0.156l0.188 0.037-0.219 0.137c-0.206 0.131-0.213 0.137-0.063 0.137 0.15 0.006 0.15 0.006 0.037 0.094-0.106 0.081-0.112 0.094-0.019 0.094 0.056 0 0.106 0.025 0.106 0.063 0 0.031-0.056 0.063-0.119 0.063-0.069 0-0.144 0.025-0.162 0.063-0.019 0.031 0.019 0.063 0.094 0.063 0.119 0 0.112 0.025-0.088 0.325-0.169 0.244-0.206 0.344-0.15 0.406 0.050 0.063 0.025 0.144-0.1 0.331-0.163 0.244-0.219 0.563-0.1 0.563 0.112 0 0.063 0.131-0.119 0.319-0.125 0.119-0.15 0.181-0.094 0.181 0.063 0 0.081 0.037 0.063 0.106-0.019 0.063-0.050 0.225-0.075 0.363s-0.069 0.287-0.106 0.325c-0.044 0.056-0.031 0.081 0.044 0.081 0.081 0 0.1 0.031 0.069 0.137-0.025 0.081-0.069 0.169-0.1 0.2-0.031 0.037-0.056 0.094-0.056 0.125 0.006 0.037 0.063 0 0.125-0.081 0.112-0.125 0.125-0.131 0.125-0.031 0 0.188-0.288 0.756-0.419 0.831-0.094 0.056-0.081 0.063 0.094 0.069 0.119 0 0.2 0.031 0.2 0.081 0 0.088-0.331 0.419-0.531 0.537-0.106 0.063-0.087 0.063 0.125 0.037 0.519-0.075 0.719-0.162 0.719-0.325 0-0.081 0.031-0.213 0.069-0.287 0.069-0.125 0.063-0.125-0.1 0.019-0.144 0.131-0.163 0.137-0.112 0.031 0.037-0.069 0.081-0.206 0.106-0.3 0.044-0.175 0.037-0.175-0.1-0.081-0.225 0.162-0.25 0.119-0.087-0.169 0.15-0.262 0.231-0.537 0.256-0.887 0.006-0.106 0.037-0.275 0.063-0.375l0.044-0.188-0.144 0.219-0.15 0.219-0.019-0.169c-0.013-0.094 0.025-0.256 0.081-0.363 0.056-0.113 0.075-0.181 0.037-0.162-0.119 0.075-0.075-0.031 0.088-0.225 0.156-0.188 0.213-0.344 0.094-0.269-0.031 0.019-0.063 0.012-0.063-0.019s0.125-0.144 0.281-0.256c0.4-0.287 0.412-0.356 0.019-0.137-0.188 0.106-0.362 0.194-0.388 0.194s0.025-0.094 0.112-0.206c0.094-0.119 0.162-0.238 0.162-0.262s0.069-0.144 0.156-0.256c0.181-0.231 0.194-0.306 0.063-0.25-0.15 0.056-0.106-0.069 0.081-0.213 0.138-0.119 0.225-0.131 0.5-0.106 0.25 0.025 0.4 0.006 0.625-0.094 0.162-0.075 0.475-0.15 0.7-0.175 0.3-0.031 0.375-0.056 0.281-0.094-0.15-0.063-0.406-0.281-0.406-0.356 0-0.088 0.375-0.056 0.55 0.056 0.125 0.075 0.094 0.025-0.106-0.188-0.156-0.162-0.269-0.306-0.25-0.319 0.013-0.019 0.144 0.025 0.294 0.088 0.144 0.069 0.263 0.113 0.263 0.1 0-0.006-0.131-0.113-0.287-0.225-0.325-0.231-0.588-0.694-0.469-0.838 0.037-0.037 0.050-0.138 0.025-0.213-0.037-0.162 0.075-0.175 0.45-0.044 0.131 0.050 0.256 0.075 0.269 0.063 0.037-0.031-0.112-0.294-0.263-0.463-0.125-0.144-0.125-0.15-0.006-0.1 0.069 0.025 0.338 0.125 0.594 0.225 0.356 0.138 0.525 0.237 0.7 0.444 0.281 0.319 0.313 0.237 0.056-0.119-0.131-0.181-0.275-0.287-0.487-0.362-0.456-0.162-0.938-0.4-1.019-0.5-0.063-0.075-0.037-0.075 0.138-0.031 0.112 0.025 0.406 0.069 0.644 0.094 0.244 0.025 0.487 0.069 0.55 0.1 0.056 0.037 0.106 0.037 0.106 0.006s-0.138-0.131-0.3-0.219c-0.35-0.188-0.969-0.306-1.194-0.225-0.406 0.156 0.013-0.162 0.506-0.388 0.094-0.037 0.156-0.1 0.138-0.125-0.037-0.063-1.212 0.513-1.513 0.737-0.438 0.331-0.494 0.731-0.181 1.388 0.2 0.425 0.206 0.45 0.119 0.675-0.050 0.131-0.088 0.35-0.081 0.488l0.006 0.25-0.237-0.438c-0.131-0.244-0.35-0.612-0.494-0.825-0.269-0.412-0.487-1.212-0.444-1.644 0.013-0.175 0.044-0.1 0.169 0.406 0.169 0.694 0.3 1 0.506 1.188 0.106 0.094 0.094 0.050-0.056-0.156-0.219-0.319-0.319-0.744-0.269-1.162 0.025-0.25-0.006-0.362-0.287-0.919-0.175-0.35-0.388-0.862-0.475-1.138-0.356-1.112-0.663-2.875-0.663-3.819 0-0.269-0.025-0.463-0.063-0.463-0.031 0-0.063 0.15-0.063 0.331z"></path>
<path d="M3.531 0.356c-0.1 0.906 0.406 3.538 0.819 4.206 0.063 0.1 0.081 0.112 0.050 0.031-0.106-0.319-0.256-0.913-0.213-0.862s0.375 0.969 0.375 1.050c0 0.019-0.031 0.019-0.069-0.006-0.050-0.031-0.050-0.006 0 0.088 0.037 0.075 0.094 0.144 0.119 0.162 0.112 0.069 0.019-0.344-0.287-1.281-0.388-1.175-0.45-1.544-0.45-2.794v-0.95h-0.15c-0.138 0-0.156 0.031-0.194 0.356z"></path>
<path d="M7.188 0.094l0.156 0.087-0.188 0.006h-0.188l0.188 0.131 0.188 0.125-0.281-0.006c-0.156-0.006-0.406-0.006-0.563 0-0.237 0.013-0.256 0.019-0.125 0.063 0.088 0.025 0.263 0.050 0.394 0.056 0.125 0.006 0.281 0.031 0.344 0.063 0.056 0.037 0.181 0.075 0.281 0.1 0.2 0.037 0.225 0.156 0.031 0.156-0.2 0-0.069 0.094 0.313 0.219 0.181 0.056 0.406 0.169 0.5 0.244 0.094 0.081 0.256 0.194 0.356 0.25 0.106 0.063 0.131 0.087 0.063 0.069-0.2-0.069-1.412-0.225-1.487-0.2-0.044 0.012 0.138 0.063 0.394 0.106 0.556 0.094 1.188 0.281 1.519 0.45 0.394 0.2 0.219 0.194-0.213-0.006s-0.931-0.313-0.931-0.212c0 0.038 0.175 0.113 0.394 0.175 0.375 0.1 1 0.412 1.075 0.537 0.025 0.031-0.037 0.025-0.137-0.013-0.094-0.038-0.5-0.081-0.894-0.087-0.588-0.013-0.65-0.006-0.338 0.031 0.556 0.075 0.869 0.169 1.037 0.319l0.144 0.125-0.188-0.038c-0.1-0.025-0.469-0.050-0.813-0.063-0.344-0.006-0.469-0.006-0.281 0.006 0.463 0.031 0.637 0.081 0.594 0.15-0.019 0.038 0.006 0.063 0.063 0.063 0.069 0 0.094 0.044 0.081 0.138-0.019 0.156-0.1 0.181-1.075 0.294-0.306 0.038-0.569 0.081-0.588 0.1-0.081 0.081 0.069 0.094 0.431 0.031 0.469-0.075 1.4-0.081 1.212-0.006-0.106 0.044-0.1 0.056 0.075 0.094 0.113 0.025 0.219 0.075 0.238 0.106 0.050 0.069 0.006 0.069-0.431-0.013-0.2-0.038-0.375-0.050-0.394-0.038-0.012 0.019 0.162 0.094 0.4 0.169 0.556 0.187 0.975 0.394 1.375 0.694 0.181 0.131 0.344 0.244 0.363 0.244s-0.037-0.138-0.125-0.313c-0.088-0.169-0.156-0.319-0.156-0.338 0-0.044 0.463 0.094 0.55 0.162 0.113 0.094 0.094 0.037-0.088-0.287-0.088-0.156-0.144-0.288-0.119-0.288s0.012-0.044-0.031-0.094c-0.119-0.144-0.025-0.188 0.144-0.075 0.2 0.131 0.556 0.475 0.681 0.669l0.106 0.156v-0.169c0.006-0.094 0.056-0.213 0.113-0.275 0.1-0.094 0.094-0.125-0.075-0.444-0.238-0.456-0.713-1.081-1.219-1.613-0.475-0.5-0.787-0.881-1.213-1.488l-0.3-0.419h-0.756c-0.694 0.006-0.75 0.013-0.606 0.094zM8.688 1.225c0 0.012-0.056 0-0.125-0.038s-0.125-0.081-0.125-0.1c0-0.012 0.056 0 0.125 0.038s0.125 0.081 0.125 0.1z"></path>
<path d="M9.194 0.669c0.275 0.375 0.775 0.956 1.113 1.3 0.656 0.669 0.887 0.981 1.287 1.719 0.137 0.256 0.281 0.469 0.313 0.469 0.037 0.006 0.119 0.037 0.188 0.075 0.2 0.106 0.594 0.162 0.594 0.081s-0.287-1.35-0.344-1.531c-0.037-0.106-0.031-0.112 0.044-0.031 0.044 0.056 0.131 0.087 0.188 0.075 0.063-0.013 0.188 0.038 0.275 0.106 0.094 0.075 0.225 0.131 0.287 0.131 0.175 0 0.55 0.394 0.55 0.575 0 0.087-0.019 0.175-0.044 0.2-0.056 0.056-0.206 0.494-0.175 0.525 0.037 0.037 0.219-0.269 0.275-0.469 0.037-0.119 0.025-0.269-0.025-0.419-0.106-0.3 0.019-0.281 0.169 0.031 0.088 0.175 0.1 0.263 0.044 0.45-0.081 0.294-0.8 1.094-0.875 0.969-0.075-0.119-0.131-0.019-0.106 0.2l0.019 0.2 0.262-0.194c0.15-0.106 0.281-0.194 0.294-0.194 0.088 0-0.181 0.612-0.319 0.725-0.15 0.119-0.162 0.15-0.125 0.469 0.056 0.444 0.313 1.438 0.494 1.906l0.144 0.369 0.019-0.238c0.012-0.125 0.044-0.231 0.081-0.231 0.031 0 0.056-0.088 0.056-0.188 0-0.106 0.031-0.188 0.063-0.188 0.037 0 0.063-0.075 0.063-0.162 0-0.138 0.019-0.15 0.088-0.094 0.075 0.063 0.094 0.044 0.113-0.131 0.012-0.131 0.050-0.206 0.113-0.206 0.050 0 0.113-0.044 0.131-0.094 0.031-0.069 0.075-0.025 0.144 0.138 0.056 0.131 0.1 0.275 0.1 0.319 0 0.050 0.044 0.125 0.094 0.169s0.094 0.138 0.094 0.213c0 0.25 0.106 0.313 0.15 0.088l0.044-0.206 0.1 0.181c0.063 0.119 0.088 0.275 0.063 0.45l-0.025 0.269 0.113-0.137c0.119-0.137 0.119-0.131 0.106 0.412-0.012 0.3-0.012 0.544 0 0.544s0.063-0.1 0.113-0.219c0.050-0.125 0.119-0.206 0.15-0.188 0.106 0.069 0.063-0.544-0.063-0.906-0.069-0.188-0.125-0.4-0.125-0.469 0-0.1-0.012-0.106-0.063-0.031-0.044 0.069-0.069 0.056-0.119-0.081-0.037-0.1-0.069-0.231-0.069-0.306 0-0.081-0.031-0.112-0.088-0.094-0.113 0.044-0.2-0.063-0.244-0.3-0.012-0.106-0.075-0.35-0.131-0.55-0.156-0.563-0.131-0.906 0.094-1.331 0.269-0.5 0.325-0.75 0.175-0.756-0.081-0.006-0.119 0.044-0.131 0.188-0.025 0.281-0.131 0.213-0.213-0.131-0.081-0.375-0.262-0.744-0.375-0.788-0.075-0.031-0.075-0.013-0.019 0.1 0.113 0.212 0.031 0.737-0.194 1.225-0.194 0.431-0.563 0.856-0.613 0.713-0.031-0.106 0.162-0.513 0.269-0.55 0.056-0.025 0.169-0.175 0.256-0.344 0.137-0.281 0.15-0.344 0.094-0.675-0.031-0.206-0.106-0.456-0.162-0.563-0.094-0.181-0.088-0.194 0.019-0.194 0.063 0 0.325 0.056 0.581 0.125s0.55 0.125 0.65 0.125c0.144 0 0.219 0.044 0.3 0.181 0.056 0.094 0.088 0.194 0.069 0.206-0.019 0.019 0.050 0.119 0.156 0.219 0.294 0.3 0.444 1.15 0.225 1.331-0.081 0.069-0.094 0.050-0.1-0.131-0.006-0.119-0.025-0.281-0.050-0.369l-0.044-0.15-0.106 0.15c-0.125 0.181-0.137 0.619-0.019 0.95 0.088 0.244 0.063 0.3-0.075 0.162-0.056-0.056-0.075-0.025-0.075 0.156 0 0.175 0.019 0.219 0.094 0.194 0.063-0.025 0.094 0 0.094 0.075 0.006 0.069 0.050 0.2 0.1 0.306 0.050 0.1 0.075 0.138 0.056 0.075s-0.006-0.094 0.031-0.075c0.037 0.019 0.063 0.075 0.063 0.112 0 0.044 0.050 0.156 0.106 0.263 0.063 0.119 0.106 0.362 0.119 0.656 0.025 0.669 0.025 0.675 0.119 0.469 0.069-0.144 0.087-0.156 0.094-0.063 0.006 0.319 0.756 1.781 0.988 1.925 0.044 0.031 0.113 0.113 0.144 0.188 0.044 0.1 0.050-0.006 0.031-0.35-0.025-0.431-0.019-0.481 0.056-0.375 0.137 0.175 0.113-0.012-0.038-0.3-0.113-0.231-0.119-0.25-0.019-0.231 0.069 0.012 0.156 0.144 0.225 0.331 0.1 0.269 0.113 0.281 0.087 0.094-0.019-0.119-0.050-0.287-0.069-0.375-0.025-0.088 0.012-0.050 0.087 0.094 0.063 0.137 0.125 0.231 0.125 0.213 0.006-0.019-0.119-0.406-0.275-0.856s-0.281-0.9-0.281-1c0-0.281 0.069-0.575 0.131-0.544 0.025 0.019 0.069-0.138 0.094-0.344 0.044-0.394 0.094-0.444 0.288-0.269 0.1 0.094 0.113 0.094 0.113 0 0-0.056-0.050-0.2-0.106-0.325-0.137-0.294-0.063-0.344 0.175-0.119 0.256 0.244 0.369 0.469 0.369 0.756 0.006 0.144 0.069 0.338 0.163 0.487 0.144 0.219 0.156 0.231 0.131 0.081-0.025-0.162-0.019-0.162 0.125-0.069 0.081 0.056 0.163 0.162 0.181 0.244 0.025 0.088 0.069 0.131 0.125 0.106 0.069-0.025 0.087 0.044 0.087 0.331 0.006 0.319 0.012 0.356 0.087 0.263 0.1-0.138 0.163-0.081 0.163 0.15 0 0.094 0.031 0.175 0.063 0.175 0.038 0 0.063 0.075 0.063 0.162 0 0.131 0.019 0.15 0.087 0.094s0.081-0.006 0.075 0.306c-0.006 0.262 0.019 0.394 0.081 0.431 0.069 0.044 0.069 0.1-0.012 0.325-0.050 0.15-0.094 0.331-0.094 0.4 0.006 0.069-0.019 0.181-0.044 0.25-0.038 0.094-0.006 0.081 0.15-0.063 0.206-0.188 0.569-0.825 0.569-0.988 0-0.050 0.119-0.244 0.262-0.425 0.275-0.344 0.2-0.325-0.225 0.063-0.188 0.175-0.219 0.188-0.144 0.069 0.106-0.162 0.881-0.875 0.95-0.875 0.019 0 0.019 0.056 0 0.125-0.038 0.125-0.038 0.125 0.2 0.019 0.394-0.181 0.506-0.425 0.206-0.425-0.119 0-0.163-0.050-0.2-0.213-0.069-0.244-0.038-0.269-0.55 0.444-0.225 0.313-0.475 0.613-0.563 0.669-0.137 0.094-0.131 0.075 0.050-0.181 0.9-1.244 0.906-1.25 0.625-1.25-0.106 0-0.125-0.031-0.1-0.188 0.025-0.175 0.025-0.181-0.087-0.088-0.137 0.131-0.281 0.031-0.313-0.206-0.012-0.125-0.075-0.031-0.256 0.4-0.131 0.313-0.281 0.619-0.331 0.681-0.119 0.144-0.119 0.15 0.262-0.787 0.163-0.406 0.35-1.013 0.425-1.4l0.137-0.681-0.206-0.194c-0.225-0.206-0.325-0.5-0.331-0.962v-0.275l-0.212 0.131c-0.256 0.163-0.288 0.163-0.288 0.019-0.006-0.075-0.075-0.031-0.244 0.156-0.131 0.15-0.256 0.269-0.281 0.269-0.075 0-0.038-0.388 0.056-0.563 0.106-0.212 0.563-0.469 0.944-0.531 0.131-0.025 0.294-0.056 0.35-0.075 0.087-0.019 0.1 0 0.069 0.087-0.038 0.106-0.031 0.106 0.081 0.013 0.063-0.056 0.262-0.15 0.431-0.2l0.313-0.106-0.206 0.188c-0.113 0.106-0.244 0.194-0.294 0.194-0.050 0.006-0.119 0.019-0.156 0.025-0.031 0.006-0.106 0.019-0.163 0.025-0.137 0.013-0.288 0.413-0.262 0.712l0.019 0.262 0.313-0.313c0.175-0.175 0.556-0.587 0.844-0.931 0.294-0.337 0.837-0.869 1.219-1.175 0.75-0.613 1.938-1.738 1.831-1.738-0.038 0-0.294 0.219-0.575 0.487-1.069 1.031-2.594 2.194-2.9 2.212-0.262 0.013-0.35 0.031-0.45 0.069-0.050 0.025-0.212 0.069-0.363 0.1-0.244 0.050-0.262 0.050-0.231-0.063 0.056-0.169-0.006-0.15-0.238 0.069-0.275 0.256-0.519 0.35-0.637 0.25-0.075-0.063-0.094-0.063-0.094 0.025 0 0.144-0.294 0.131-0.544-0.025-0.15-0.087-0.206-0.1-0.206-0.038s-0.337 0.075-1.819 0.063c-1-0.013-1.919-0.050-2.044-0.081s-0.506-0.075-0.85-0.1c-0.613-0.044-0.619-0.044-0.9-0.306-0.231-0.212-0.275-0.231-0.238-0.112 0.050 0.144 0.044 0.144-0.131 0.056-0.1-0.050-0.275-0.075-0.412-0.056-0.125 0.013-0.269 0-0.313-0.038-0.037-0.031-0.2-0.081-0.356-0.106s-0.387-0.1-0.512-0.163c-0.331-0.169-0.969-0.831-1.531-1.587-0.262-0.362-0.519-0.656-0.556-0.656-0.044 0 0.15 0.3 0.419 0.669zM12.281 2.875c0.044 0.138-0.069 0.331-0.162 0.275-0.031-0.019-0.1-0.112-0.15-0.219-0.094-0.181-0.094-0.181 0.088-0.181 0.131 0 0.2 0.038 0.225 0.125zM18.825 3.444c0.087 0.1 0.15 0.125 0.275 0.094 0.144-0.038 0.156-0.031 0.113 0.1-0.025 0.081-0.044 0.219-0.038 0.313 0.006 0.194-0.044 0.219-0.175 0.094-0.050-0.037-0.038-0.013 0.025 0.063 0.194 0.237 0.075 0.281-0.163 0.063-0.169-0.156-0.244-0.281-0.275-0.475-0.056-0.356-0.169-0.237-0.212 0.231l-0.031 0.356-0.275-0.5-0.006 0.275c0 0.213-0.019 0.263-0.094 0.231-0.15-0.056-0.113 0.044 0.125 0.319 0.275 0.325 0.281 0.394 0.006 0.181-0.413-0.313-0.394-0.162 0.025 0.263 0.275 0.275 0.313 0.35 0.313 0.569v0.25l-0.225-0.15c-0.238-0.162-0.525-0.206-0.525-0.088 0 0.037-0.075-0.019-0.163-0.125-0.125-0.156-0.156-0.256-0.156-0.531 0-0.194-0.038-0.388-0.087-0.456-0.081-0.106-0.087-0.1-0.094 0.075 0 0.106 0.025 0.281 0.056 0.394 0.081 0.263-0.025 0.263-0.144-0.006l-0.087-0.2-0.006 0.231c-0.006 0.131-0.031 0.237-0.069 0.237-0.056 0-0.188-0.388-0.188-0.569 0-0.050-0.044-0.15-0.1-0.219-0.094-0.112-0.094-0.112-0.063 0.037 0.056 0.256 0.106 0.85 0.056 0.75-0.019-0.050-0.119-0.388-0.219-0.75l-0.175-0.656 0.031 0.625 0.025 0.625-0.119-0.438c-0.063-0.244-0.156-0.531-0.206-0.65-0.081-0.2-0.081-0.225 0.025-0.344 0.069-0.069 0.119-0.175 0.119-0.237s0.012-0.112 0.031-0.112c0.056 0 0.619 0.281 0.8 0.4l0.169 0.112v-0.194c0-0.3 0.25-0.388 1-0.35 0.512 0.025 0.606 0.050 0.7 0.163zM16.356 5.325c-0.019 0.050-0.038 0.031-0.038-0.037-0.006-0.069 0.012-0.106 0.031-0.081 0.019 0.019 0.025 0.075 0.006 0.119zM20.837 7.706c-0.056 0.162-0.169 0.331-0.288 0.419-0.106 0.075-0.169 0.1-0.144 0.056 0.081-0.15 0.488-0.744 0.506-0.744 0.012 0-0.025 0.125-0.075 0.269z"></path>
<path d="M17.319 3.625c-0.006 0.125 0.238 0.65 0.281 0.612 0.019-0.019-0.025-0.144-0.094-0.275-0.063-0.138-0.131-0.288-0.15-0.337-0.031-0.081-0.031-0.081-0.038 0z"></path>
<path d="M16.875 4.181c0 0.031 0.031 0.081 0.063 0.1 0.038 0.019 0.063 0.013 0.063-0.025 0-0.031-0.025-0.081-0.063-0.1-0.031-0.019-0.063-0.013-0.063 0.025z"></path>
<path d="M24.306 0.613c-0.356 0.338-1 0.919-1.425 1.294s-0.9 0.85-1.056 1.063c-0.438 0.594-0.688 1.156-0.519 1.156 0.031 0 0.1 0.013 0.15 0.037 0.050 0.019 0.231-0.088 0.419-0.25 0.369-0.319 0.506-0.369 0.35-0.138-0.063 0.1-0.075 0.163-0.025 0.175 0.044 0.019 0.019 0.119-0.069 0.287-0.15 0.3-0.137 0.313 0.163 0.131 0.119-0.075 0.225-0.119 0.238-0.106 0.019 0.019-0.15 0.237-0.363 0.494-0.7 0.819-0.525 0.775 0.325-0.081 0.131-0.131 0.394-0.306 0.587-0.394 0.194-0.094 0.369-0.194 0.394-0.225 0.025-0.044 0.156-0.050 0.344-0.025 0.206 0.031 0.306 0.019 0.306-0.025s0.094-0.056 0.269-0.038c0.194 0.025 0.231 0.019 0.137-0.025-0.069-0.031-0.337-0.063-0.6-0.063-0.281-0.006-0.569-0.044-0.688-0.1-0.194-0.087-0.1-0.094 1.163-0.075l1.375 0.019 0.494 0.2c0.269 0.113 0.575 0.262 0.675 0.337 0.175 0.119 0.181 0.119 0.125 0.013-0.031-0.063-0.056-0.15-0.056-0.181 0.006-0.037-0.3-0.156-0.675-0.269-0.569-0.169-0.819-0.212-1.544-0.244-1.006-0.044-1.069-0.138-0.131-0.2l0.613-0.044-0.438-0.075c-0.238-0.050-0.563-0.1-0.712-0.125-0.156-0.025-0.288-0.081-0.3-0.119-0.031-0.087 0.462-0.244 1.163-0.369l0.475-0.087-0.675 0.031c-0.65 0.031-0.669 0.025-0.606-0.094 0.038-0.069 0.15-0.131 0.269-0.15 0.106-0.019 0.356-0.056 0.544-0.087 0.337-0.056 0.337-0.056 0.081-0.069-0.762-0.025-0.506-0.294 0.356-0.381 0.45-0.044 0.456-0.044 0.125-0.056-0.188 0-0.444 0.019-0.563 0.050-0.369 0.094-0.663 0.131-0.563 0.075 0.050-0.031 0.294-0.087 0.531-0.131 0.244-0.044 0.506-0.119 0.594-0.163l0.156-0.081-0.181-0.006c-0.1 0-0.163-0.019-0.137-0.050 0.056-0.050 0.012-0.044 1.163-0.131l0.844-0.063-1.938 0.050 0.25-0.125 0.25-0.119-0.231 0.031c-0.131 0.019-0.238 0.019-0.238-0.006 0-0.081 0.319-0.338 0.419-0.338 0.056 0 0.2-0.025 0.325-0.063 0.125-0.031 0.331-0.075 0.469-0.094 0.456-0.075 0.188-0.088-0.394-0.025-0.319 0.037-0.613 0.050-0.65 0.037s0.25-0.1 0.644-0.2c0.394-0.1 0.681-0.188 0.644-0.2-0.044-0.019-0.181 0-0.313 0.038s-0.319 0.069-0.425 0.062c-0.15 0-0.106-0.031 0.219-0.15l0.406-0.144-1.887-0.013-0.65 0.613zM24.731 1.35c-0.019 0.019-0.075 0.025-0.119 0.006-0.050-0.019-0.031-0.038 0.038-0.038 0.069-0.006 0.106 0.012 0.081 0.031zM23.938 3.306l0.281 0.044-0.25 0.044c-0.6 0.1-0.969 0.119-0.969 0.056 0-0.181 0.369-0.237 0.938-0.144z"></path>
<path d="M28.456 1.019c-0.006 0.813-0.038 1.156-0.169 1.762-0.156 0.737-0.387 1.35-0.556 1.45-0.050 0.025-0.119 0.112-0.163 0.194-0.069 0.131-0.081 0.131-0.175 0.044-0.063-0.063-0.156-0.088-0.244-0.069-0.081 0.025-0.35-0.031-0.613-0.119-0.494-0.169-0.625-0.188-0.575-0.1 0.019 0.031 0.144 0.075 0.269 0.1 0.294 0.050 0.675 0.206 0.631 0.256-0.019 0.019-0.225-0.013-0.45-0.069-0.456-0.1-0.85-0.125-0.85-0.044 0 0.031 0.15 0.112 0.337 0.194 0.462 0.188 0.619 0.375 0.169 0.194-0.181-0.069-0.444-0.181-0.587-0.256l-0.262-0.125 0.156 0.125c0.087 0.075 0.375 0.244 0.644 0.381 0.262 0.144 0.481 0.287 0.481 0.325s-0.044 0.044-0.106 0.019c-1.075-0.444-1.456-0.55-2.125-0.612-0.387-0.037-0.706-0.088-0.706-0.119 0-0.025 0.188-0.050 0.425-0.056 0.5 0 0.369-0.081-0.244-0.15l-0.406-0.044-0.356 0.325c-0.2 0.181-0.419 0.412-0.494 0.525-0.119 0.175-0.106 0.169 0.144-0.063 0.337-0.313 0.675-0.55 0.725-0.506 0.012 0.019-0.113 0.206-0.288 0.419-0.175 0.206-0.319 0.394-0.319 0.412s0.125-0.069 0.269-0.188c0.294-0.237 0.706-0.412 0.975-0.406 0.125 0 0.050 0.056-0.306 0.231-0.6 0.294-0.775 0.419-0.913 0.625l-0.113 0.169 0.219-0.175c0.45-0.362 0.806-0.494 1.806-0.656 0.294-0.050 0.313-0.063 0.125-0.069-0.119-0.006-0.275-0.037-0.344-0.069-0.1-0.044-0.081-0.056 0.106-0.056 0.256-0.006 1.275 0.313 1.387 0.431 0.056 0.063 0.019 0.069-0.15 0.037-0.494-0.094-0.925-0.112-1.038-0.050-0.113 0.069-0.113 0.069 0.019 0.075 0.212 0 1.275 0.412 1.387 0.537 0.094 0.094 0.087 0.1-0.025 0.056-1.306-0.481-1.387-0.5-1.606-0.394l-0.206 0.106 0.219 0.006c0.331 0.006 0.894 0.15 1.65 0.412l0.681 0.237 0.306-0.338c0.169-0.188 0.45-0.588 0.631-0.888 0.175-0.3 0.331-0.531 0.344-0.519s-0.025 0.106-0.075 0.206c-0.056 0.106-0.144 0.325-0.2 0.494-0.056 0.162-0.219 0.525-0.369 0.8-0.244 0.463-0.262 0.519-0.181 0.656 0.2 0.362 0 1.087-0.394 1.444-0.087 0.081-0.144 0.113-0.119 0.069 0.031-0.044 0.050-0.319 0.056-0.612 0.006-0.662-0.056-0.75-0.794-1.188-0.512-0.306-0.806-0.406-1.163-0.394-0.106 0.006-0.069 0.031 0.125 0.081 0.481 0.138 1.262 0.612 1.163 0.706-0.019 0.019-0.125-0.044-0.238-0.138-0.294-0.25-0.794-0.469-1.050-0.463l-0.219 0.006 0.256 0.081c0.481 0.15 1.025 0.506 1.025 0.669 0 0.025-0.056-0.006-0.125-0.075-0.15-0.15-0.512-0.338-0.856-0.438-0.244-0.075-0.288-0.069-0.6 0.081-0.369 0.175-0.756 0.481-0.869 0.694-0.044 0.081 0.012 0.050 0.144-0.081 0.262-0.269 0.55-0.444 0.712-0.444 0.113 0.006 0.113 0.013 0.019 0.069-0.125 0.069-0.744 0.713-0.819 0.85-0.031 0.050-0.038 0.106-0.019 0.125 0.019 0.025 0.206-0.15 0.419-0.375 0.275-0.3 0.444-0.431 0.619-0.481 0.281-0.075 0.719-0.025 0.819 0.1 0.038 0.050 0.106 0.088 0.15 0.088s0.144 0.056 0.225 0.125l0.15 0.125-0.163-0.069c-0.131-0.056-0.206-0.050-0.363 0.031-0.244 0.131-0.25 0.231-0.006 0.188 0.1-0.025 0.231-0.019 0.294 0 0.081 0.031 0.031 0.075-0.206 0.188-0.325 0.15-1.056 0.712-1 0.769 0.019 0.019 0.15-0.069 0.294-0.2 0.337-0.3 0.769-0.506 0.794-0.375 0.012 0.056 0.094 0.094 0.212 0.094h0.194l-0.137 0.15c-0.081 0.081-0.313 0.238-0.519 0.35-0.212 0.113-0.4 0.262-0.444 0.356-0.038 0.081-0.175 0.262-0.306 0.394s-0.238 0.262-0.238 0.294c0 0.031 0.15-0.088 0.337-0.269 0.225-0.219 0.431-0.356 0.6-0.4 0.481-0.131 0.481-0.044-0.019 0.331-0.506 0.375-0.625 0.506-0.275 0.294 0.238-0.15 0.456-0.175 0.25-0.031-0.188 0.131-0.394 0.488-0.394 0.662 0.006 0.125 0.031 0.106 0.131-0.106 0.069-0.144 0.188-0.313 0.262-0.381 0.156-0.144 0.481-0.244 0.481-0.144 0 0.088-0.719 0.756-0.925 0.869-0.094 0.050-0.137 0.1-0.094 0.113 0.038 0.012 0.188-0.031 0.331-0.106l0.262-0.131-0.050 0.144c-0.038 0.131-0.025 0.125 0.181-0.056 0.438-0.387 0.85-0.4 1.262-0.044l0.188 0.162-0.225-0.131c-0.35-0.206-0.744-0.238-0.931-0.075-0.087 0.069-0.125 0.125-0.081 0.131 0.038 0 0.094-0.031 0.113-0.063 0.075-0.119 0.563-0.069 0.756 0.075 0.331 0.25 0.656 0.575 0.756 0.762l0.094 0.188-0.256-0.225c-0.281-0.244-1.119-0.531-1.306-0.456-0.081 0.037-0.031 0.069 0.175 0.125 0.525 0.137 1 0.444 0.913 0.581-0.019 0.031 0.038 0.15 0.119 0.262 0.2 0.269 0.156 0.306-0.106 0.106-0.244-0.188-0.8-0.438-0.856-0.387-0.019 0.025 0.012 0.069 0.069 0.1 0.113 0.063 0.663 0.756 0.719 0.919 0.044 0.1 0.038 0.1-0.288-0.031-0.044-0.019-0.006 0.088 0.087 0.231 0.206 0.331 0.363 0.688 0.3 0.688-0.031 0-0.175-0.244-0.325-0.531-0.156-0.294-0.313-0.563-0.356-0.6-0.087-0.069 0.269 0.875 0.525 1.394 0.063 0.125-0.125 0.025-0.288-0.156-0.544-0.588-1.063-1.2-1.044-1.225 0.019-0.012 0.113 0.012 0.219 0.056s0.206 0.063 0.225 0.044c0.087-0.081-1.225-0.45-1.962-0.55-0.469-0.063-0.65-0.119-0.95-0.294-0.206-0.125-0.363-0.231-0.35-0.25 0.012-0.012 0.087 0.006 0.156 0.050 0.075 0.037 0.131 0.050 0.131 0.031s-0.163-0.113-0.356-0.206c-0.319-0.144-0.444-0.162-1.019-0.169-0.631 0-0.675 0.006-1.144 0.231-0.569 0.275-1.131 0.775-1.381 1.238-0.188 0.344-0.35 1.088-0.35 1.6 0 0.313-0.063 0.425-0.156 0.275-0.081-0.125-0.219-0.063-0.219 0.1 0 0.106 0.125 0.306 0.381 0.6l0.375 0.444-0.025-0.438c-0.012-0.244-0.050-0.481-0.075-0.525-0.031-0.050 0.019-0.025 0.106 0.056l0.156 0.144-0.025-0.156c-0.025-0.125 0.006-0.169 0.188-0.256 0.194-0.088 0.281-0.094 0.731-0.025 0.944 0.137 1.706-0.019 2.331-0.481 0.413-0.3 0.512-0.5 0.606-1.169 0.044-0.319 0.094-0.594 0.119-0.619 0.019-0.019 0.15-0.019 0.288 0.012 0.15 0.025 0.188 0.050 0.106 0.056-0.231 0.012-0.125 0.15 0.194 0.262 0.375 0.125 0.431 0.181 0.169 0.181-0.2 0-0.206 0.006-0.087 0.094 0.063 0.050 0.212 0.094 0.325 0.094 0.106 0 0.2 0.031 0.2 0.063 0 0.044 0.087 0.050 0.238 0.025 0.219-0.037 0.225-0.031 0.106 0.063-0.125 0.094-0.125 0.094 0.012 0.1 0.075 0 0.156 0.031 0.175 0.069 0.025 0.031 0.119 0.094 0.206 0.125l0.169 0.069-0.156 0.081-0.156 0.088 0.206 0.044c0.238 0.050 0.319 0.137 0.194 0.219-0.137 0.088-0.262 0.069-0.219-0.037 0.044-0.119-0.031-0.119-0.188 0-0.063 0.050-0.181 0.094-0.256 0.094s-0.188 0.075-0.256 0.175c-0.269 0.369-1.512 0.787-2.575 0.863-0.581 0.037-0.675 0.056-0.5 0.1 0.238 0.056 1.431 0.069 1.569 0.019 0.050-0.012 0.131 0 0.181 0.031 0.081 0.056 0.081 0.069 0 0.125-0.050 0.031-0.169 0.063-0.262 0.063-0.1 0-0.175 0.025-0.175 0.056 0 0.075 0.569 0.156 0.938 0.144l0.281-0.012-0.306 0.181c-0.175 0.1-0.406 0.2-0.519 0.225-0.113 0.019-0.2 0.069-0.188 0.106 0.006 0.044-0.069 0.094-0.175 0.119-0.394 0.088 0.119 0.056 0.712-0.044 0.931-0.156 0.806-0.025-0.206 0.231-0.625 0.156-0.688 0.175-0.65 0.212 0.012 0.019 0.369 0.056 0.781 0.094 0.744 0.063 0.769 0.063 1.144-0.087 0.212-0.087 0.5-0.262 0.637-0.381 0.262-0.244 0.425-0.256 0.819-0.056 0.175 0.094 0.225 0.213 0.094 0.213-0.050 0-0.056 0.019-0.019 0.050 0.069 0.044 0.281 0.362 0.281 0.412 0 0.012-0.063 0.012-0.137-0.012-0.087-0.019-0.119-0.012-0.087 0.038 0.025 0.044 0.1 0.075 0.163 0.075s0.131 0.025 0.15 0.050c0.044 0.069-0.387 0.275-0.469 0.231-0.081-0.056-0.069 0.056 0.019 0.144 0.063 0.063 0.063 0.094-0.012 0.137-0.050 0.031-0.144 0.063-0.212 0.063-0.075 0-0.1 0.031-0.075 0.094 0.050 0.137-0.163 0.119-0.313-0.025-0.075-0.063-0.225-0.137-0.344-0.163s-0.3-0.094-0.4-0.163c-0.106-0.063-0.319-0.131-0.469-0.156-0.331-0.050-0.5-0.125-0.625-0.275-0.1-0.119-0.137-0.119-1.031 0.094-0.137 0.031-0.163 0.025-0.094-0.025 0.175-0.119 0.012-0.137-0.475-0.044-0.275 0.050-0.575 0.075-0.681 0.063-0.188-0.031-0.188-0.031 0.031 0.069 0.119 0.056 0.231 0.125 0.25 0.156 0.106 0.175 0.538 0.438 0.725 0.438 0.113 0 0.25 0.019 0.3 0.038 0.087 0.031 0.075 0.063-0.056 0.188l-0.163 0.15 0.55 0.006h0.55l-0.244 0.113-0.244 0.106 0.488 0.2-0.438 0.012 0.188 0.15c0.106 0.087 0.294 0.2 0.425 0.262 0.256 0.119 0.288 0.181 0.119 0.269-0.137 0.075-1.113-0.044-2.094-0.244-0.35-0.075-0.781-0.163-0.956-0.2s-0.363-0.050-0.406-0.038c-0.106 0.038 0.344 0.175 0.569 0.175 0.087 0 0.438 0.069 0.781 0.15 0.344 0.087 0.863 0.181 1.156 0.219s0.856 0.137 1.25 0.219c0.394 0.087 0.887 0.188 1.087 0.225 0.219 0.044 0.337 0.094 0.288 0.125s-0.025 0.056 0.081 0.087c0.087 0.019 0.206 0.056 0.275 0.075 0.094 0.031 0.094 0.025 0.019-0.031-0.15-0.106-0.050-0.081 0.538 0.125 0.788 0.275 1.494 0.762 2.306 1.587 0.381 0.387 0.806 0.85 0.95 1.038 0.15 0.188 0.512 0.65 0.813 1.025 0.6 0.75 1.006 1.325 1.169 1.637 0.15 0.3 0.075 0.25-0.106-0.063-0.319-0.538-2.125-2.788-2.881-3.6-0.4-0.419-1.531-1.269-1.644-1.231-0.044 0.019-0.381-0.081-0.75-0.219-0.719-0.269-2.094-0.619-2.456-0.619-0.119 0-0.512-0.056-0.875-0.125-1-0.188-1-0.188-1-0.137 0 0.025 0.319 0.113 0.706 0.194 0.381 0.075 0.788 0.181 0.887 0.238 0.106 0.050 0.444 0.175 0.75 0.281 2.344 0.781 4.675 2.744 6.037 5.081 0.144 0.238 0.325 0.538 0.4 0.656 0.169 0.25 0.269 0.506 0.494 1.256 0.256 0.831 0.188 0.794-0.113-0.069-0.337-0.969-0.394-1.087-1.069-2.094-1.050-1.569-1.813-2.406-2.881-3.169-0.538-0.381-1.038-0.681-0.913-0.55 0.119 0.131 0.094 0.175-0.125 0.225-0.206 0.044-0.206 0.044-0.050 0.1 0.125 0.044 0.137 0.069 0.063 0.113-0.050 0.031-0.144 0.063-0.206 0.063-0.081 0-0.019 0.075 0.194 0.25 0.531 0.413 0.519 0.538-0.012 0.137-0.544-0.413-2.419-1.3-3.569-1.7-0.581-0.2-1.069-0.363-1.075-0.35-0.056 0.056 0.206 0.175 0.981 0.431 1.869 0.619 3.944 1.8 4.969 2.825 0.794 0.788 1.75 2.219 2.375 3.55 0.438 0.931 0.387 0.956-0.075 0.044-0.581-1.15-1.056-1.913-1.4-2.25-0.156-0.156-0.394-0.406-0.519-0.563-0.144-0.169-0.1-0.131 0.119 0.094 0.2 0.206 0.325 0.306 0.281 0.219s-0.363-0.438-0.706-0.781c-0.625-0.637-0.675-0.656-0.319-0.156 0.212 0.306 0.656 1.175 0.494 0.969-0.056-0.069-0.2-0.313-0.319-0.538-0.212-0.4-0.525-0.781-0.525-0.631 0 0.081 0.387 0.756 0.663 1.137 0.331 0.469 0.762 1.381 1.087 2.313 0.363 1.019 0.406 1.275 0.094 0.5-0.119-0.294-0.244-0.587-0.275-0.656-0.038-0.069-0.075-0.212-0.1-0.313-0.019-0.106-0.094-0.288-0.169-0.406-0.137-0.219-0.15-0.25-0.169-0.394-0.006-0.044-0.056-0.019-0.119 0.063-0.056 0.069-0.288 0.231-0.512 0.356-0.425 0.231-0.394 0.294 0.063 0.131 0.144-0.050 0.319-0.094 0.381-0.094 0.206 0 0.125 0.175-0.131 0.288-0.325 0.144-0.319 0.212 0.019 0.212 0.244 0.006 0.256 0.012 0.144 0.094-0.106 0.081-0.113 0.094-0.019 0.094 0.169 0 0.125 0.087-0.094 0.188-0.113 0.050-0.319 0.137-0.456 0.2-0.225 0.094-0.231 0.106-0.081 0.106 0.194 0.006 0.363 0.063 0.363 0.125 0 0.031-0.113 0.081-0.25 0.125-0.313 0.094-0.381 0.194-0.125 0.194 0.113 0 0.181 0.025 0.156 0.063-0.019 0.031-0.106 0.063-0.181 0.063-0.137 0-0.15 0.031-0.181 0.419-0.038 0.438-0.156 0.931-0.206 0.875-0.019-0.019-0.006-0.137 0.031-0.275 0.075-0.256 0.094-1.038 0.031-1.1-0.019-0.019-0.113-0.006-0.206 0.025-0.087 0.038-0.431 0.087-0.756 0.113l-0.594 0.044 0.563 0.050c0.313 0.025 0.619 0.075 0.688 0.1 0.113 0.044 0.1 0.063-0.106 0.15-0.131 0.056-0.469 0.119-0.75 0.144-0.475 0.044-0.519 0.063-0.538 0.188-0.019 0.119 0.006 0.144 0.156 0.15 0.094 0 0.231 0.025 0.294 0.050 0.113 0.044 0.1 0.056-0.087 0.119-0.113 0.044-0.262 0.075-0.337 0.075-0.075 0.006-0.325 0.075-0.569 0.163l-0.438 0.156 0.344-0.044c0.188-0.019 0.413-0.069 0.5-0.1 0.238-0.094 0.825-0.244 0.856-0.219 0.012 0.012-0.288 0.144-0.669 0.288-0.712 0.275-0.913 0.4-0.531 0.337 0.119-0.019 0.219-0.019 0.219 0s-0.3 0.175-0.663 0.35c-0.625 0.3-1.319 0.488-1.538 0.419-0.206-0.063-0.494-0.094-0.462-0.044 0.019 0.025 0.2 0.113 0.406 0.188 0.4 0.144 0.531 0.331 0.319 0.444-0.156 0.081-1.238 0.212-1.762 0.212-0.238 0-0.425 0.006-0.425 0.012s0.137 0.044 0.306 0.081c0.219 0.044 0.419 0.044 0.663 0 0.394-0.069 0.481-0.044 0.331 0.106-0.225 0.231-0.856 0.206-2.012-0.069-0.231-0.056-0.438-0.087-0.45-0.075s0.238 0.1 0.556 0.194c0.525 0.156 0.981 0.381 0.981 0.488 0 0.025-0.212 0.087-0.475 0.15-0.55 0.119-1.025 0.087-1.406-0.094-0.131-0.069-0.244-0.106-0.244-0.087 0 0.025 0.144 0.175 0.325 0.337 0.275 0.256 0.313 0.313 0.244 0.394-0.231 0.275-0.869-0.006-1.181-0.525-0.194-0.319-0.206-0.306-0.1 0.075 0.038 0.125 0.031 0.131-0.063 0.056-0.181-0.15-0.175-0.031 0.012 0.281l0.175 0.306 2.081 0.019 2.081 0.012-0.131-0.219c-0.075-0.125-0.131-0.238-0.131-0.256 0-0.075 1.163 0.056 1.256 0.144 0.081 0.069 0.113 0.069 0.131 0.012 0.019-0.063 0.063-0.050 0.175 0.025 0.087 0.056 0.194 0.106 0.25 0.106 0.050-0.006-0.075-0.094-0.281-0.206-0.488-0.262-0.831-0.494-0.869-0.594-0.050-0.113 0.044-0.094 0.481 0.087 0.456 0.2 1.119 0.462 1.15 0.462 0.012 0-0.038-0.081-0.113-0.188-0.175-0.231-0.119-0.306 0.106-0.131 0.094 0.069 0.256 0.131 0.363 0.131 0.163-0.006 0.106-0.050-0.394-0.313-0.319-0.163-0.631-0.35-0.688-0.406-0.094-0.1-0.075-0.106 0.288-0.081 0.369 0.025 0.387 0.019 0.294-0.081-0.087-0.1-0.075-0.106 0.225-0.15l0.325-0.044-0.15-0.163c-0.131-0.144-0.131-0.156-0.019-0.113 0.225 0.081 0.469 0.119 0.469 0.069 0-0.031-0.050-0.106-0.106-0.175-0.113-0.119-0.106-0.125 0.063-0.081 0.113 0.025 0.163 0.019 0.144-0.019-0.025-0.031 0.019-0.075 0.087-0.1 0.163-0.050 0.156-0.119-0.012-0.2-0.113-0.050-0.025-0.063 0.356-0.038l0.5 0.025-0.25-0.125-0.25-0.119 0.2-0.006c0.106-0.006 0.244-0.050 0.3-0.106 0.2-0.2 0.525-0.15 1.087 0.156 0.5 0.275 0.563 0.419 0.119 0.262-0.319-0.113-0.275-0.031 0.106 0.212 0.194 0.125 0.344 0.244 0.325 0.256-0.019 0.025-0.587-0.169-1.131-0.387-0.238-0.094-0.031 0.1 0.269 0.25 0.163 0.087 0.331 0.194 0.375 0.244 0.063 0.081 0.025 0.087-0.319 0.063-0.219-0.019-0.475-0.075-0.569-0.125-0.238-0.119-0.281-0.069-0.081 0.094 0.188 0.144 0.206 0.2 0.063 0.2-0.075 0-0.063 0.038 0.063 0.131 0.087 0.069 0.163 0.156 0.163 0.188 0 0.075-0.481 0.075-0.531-0.006-0.019-0.038-0.087-0.063-0.144-0.063-0.075 0.006-0.044 0.056 0.106 0.188l0.212 0.181-0.238-0.038c-0.169-0.025-0.225-0.019-0.194 0.031 0.025 0.044 0.081 0.075 0.119 0.075 0.119 0 0.706 0.3 0.6 0.306-0.050 0.006-0.306-0.063-0.556-0.15s-0.469-0.144-0.481-0.131c-0.038 0.038 1.181 0.512 1.637 0.637 0.337 0.094 0.4 0.125 0.262 0.137-0.1 0.012-0.35-0.038-0.563-0.113s-0.581-0.175-0.825-0.219c-0.238-0.044-0.494-0.1-0.563-0.125-0.381-0.125 0.144 0.113 0.631 0.288 0.637 0.238 0.631 0.294-0.025 0.131-0.325-0.081-0.45-0.094-0.425-0.038 0.031 0.087-0.356 0.163-0.587 0.113-0.119-0.025-0.137-0.019-0.063 0.031 0.063 0.044 1.25 0.063 3.55 0.069h3.456l-0.012-1.594c0-1.294-0.019-1.594-0.087-1.594-0.087 0-1.031-0.606-1.031-0.663 0-0.019 0.031-0.012 0.069 0.012 0.044 0.025 0.156 0.044 0.25 0.038 0.137 0 0.181 0.025 0.181 0.113 0 0.113 0.056 0.137 0.481 0.219l0.137 0.025 0.006-2.969c0-2.606-0.006-2.962-0.094-2.962-0.119 0-0.119-0.1 0-0.15 0.194-0.075 0.094-0.206-0.188-0.244-0.156-0.025-0.394-0.1-0.531-0.169-0.275-0.144-0.375-0.163-0.262-0.050 0.044 0.044 0.075 0.1 0.075 0.131 0 0.081-0.45 0.019-0.637-0.087-0.087-0.050-0.438-0.231-0.775-0.413-0.656-0.337-1.262-0.869-1.194-1.038 0.019-0.056-0.025-0.119-0.131-0.169-0.1-0.044-0.137-0.087-0.087-0.106 0.113-0.044 0.025-0.144-0.131-0.144-0.181 0-0.788-0.288-0.962-0.45-0.181-0.169-0.181-0.3 0-0.3 0.113 0 0.119-0.012 0.044-0.063-0.131-0.087-0.063-0.075 0.269 0.038 0.163 0.056 0.281 0.125 0.262 0.15s0.031 0.038 0.106 0.012c0.087-0.019 0.119-0.006 0.087 0.038-0.031 0.050-0.006 0.063 0.063 0.031 0.075-0.031 0.094-0.019 0.056 0.038-0.038 0.063-0.012 0.069 0.094 0.038 0.087-0.031 0.125-0.019 0.1 0.019-0.019 0.038 0.063 0.1 0.194 0.144 0.425 0.137 0.794 0.356 1.050 0.619 0.137 0.144 0.337 0.319 0.438 0.387 0.113 0.075 0.031-0.031-0.188-0.262-0.313-0.325-0.35-0.381-0.219-0.356 0.087 0.019 0.281 0.056 0.438 0.075 0.206 0.025 0.15 0-0.188-0.094-0.481-0.131-2.113-0.869-2.119-0.956 0-0.025-0.069-0.137-0.163-0.238-0.087-0.106-0.144-0.219-0.119-0.25 0.019-0.031 0.169-0.056 0.344-0.056 0.169 0 0.306-0.031 0.306-0.063 0-0.038-0.038-0.063-0.075-0.069-0.044 0-0.025-0.025 0.044-0.056 0.113-0.044 0.106-0.056-0.063-0.094-0.444-0.1-0.538-0.387-0.1-0.319 0.125 0.025 0.313 0.056 0.413 0.075 0.113 0.019 0.050-0.025-0.175-0.125-0.594-0.25-0.669-0.356-0.337-0.5 0.113-0.050 0.156-0.094 0.094-0.094-0.056-0.006-0.2-0.094-0.313-0.194l-0.2-0.188 0.275-0.006c0.156-0.006 0.394-0.006 0.531-0.006l0.25 0.012-0.194-0.094c-0.169-0.075-0.4-0.331-0.4-0.438 0-0.019 0.163-0.031 0.363-0.038l0.356-0.006-0.337-0.081c-0.181-0.044-0.363-0.113-0.394-0.144-0.1-0.1 0.006-0.2 0.219-0.2 0.113 0 0.244-0.031 0.294-0.063 0.075-0.050 0.069-0.063-0.050-0.063-0.169 0-0.456-0.137-0.575-0.281-0.144-0.169-0.031-0.162 0.381 0.025 0.219 0.106 0.525 0.206 0.681 0.225l0.281 0.038-0.244-0.094c-0.462-0.175-0.925-0.662-0.625-0.662 0.1 0 0.094-0.012-0.025-0.1-0.231-0.156-0.175-0.269 0.163-0.287l0.294-0.019-0.281-0.094c-0.269-0.081-0.269-0.088-0.1-0.113 0.206-0.025 0.431-0.2 0.262-0.2-0.056 0-0.188-0.081-0.3-0.175-0.262-0.244-0.212-0.387 0.15-0.387 0.244 0 0.25-0.006 0.137-0.094-0.119-0.088-0.119-0.088 0.006-0.094 0.094 0 0.063-0.031-0.094-0.113-0.262-0.131-0.3-0.3-0.050-0.275 0.087 0.012 0.181-0.012 0.206-0.044 0.019-0.037-0.006-0.069-0.063-0.069-0.137 0-0.413-0.188-0.375-0.256 0.019-0.025 0.125-0.037 0.238-0.012l0.2 0.037-0.175-0.137c-0.094-0.081-0.2-0.2-0.238-0.269-0.063-0.113-0.056-0.125 0.044-0.094 0.4 0.125 0.431 0.119 0.212-0.019-0.369-0.238-0.413-0.375-0.106-0.375l0.2-0.006-0.188-0.081c-0.238-0.106-0.531-0.406-0.4-0.419 0.050-0.006 0.119-0.006 0.15 0 0.038 0.006-0.012-0.050-0.106-0.125-0.1-0.069-0.175-0.169-0.175-0.219 0-0.069 0.044-0.081 0.175-0.050l0.169 0.044-0.144-0.156c-0.075-0.081-0.125-0.169-0.106-0.188s-0.050-0.125-0.156-0.238c-0.225-0.238-0.238-0.313-0.044-0.269 0.113 0.025 0.087-0.012-0.113-0.194s-0.225-0.225-0.125-0.225c0.1 0 0.075-0.044-0.125-0.25-0.131-0.137-0.225-0.25-0.2-0.25s0.019-0.050-0.012-0.113c-0.106-0.194 0.006-0.281 0.269-0.213 0.3 0.088 0.288 0.031-0.038-0.113l-0.269-0.125h0.206c0.106 0 0.2-0.031 0.2-0.063 0-0.037-0.056-0.063-0.125-0.063s-0.125-0.019-0.125-0.037c0-0.025 0.125-0.238 0.275-0.488 0.5-0.794 0.55-0.969 0.6-1.944 0.044-0.862 0.044-0.881 0.331-1.537 0.581-1.331 0.962-2.819 1.081-4.25l0.044-0.494h-0.925l-0.012 1.019zM29.113 1.038c-0.031 0.269-0.069 0.5-0.087 0.519s-0.012-0.175 0.012-0.431c0.025-0.256 0.044-0.5 0.044-0.544s0.019-0.063 0.044-0.050c0.019 0.012 0.019 0.244-0.012 0.506zM27.731 7.244c-0.050 0.144-0.188 0.419-0.3 0.612-0.238 0.388-0.788 0.994-0.856 0.931-0.019-0.025 0.106-0.175 0.281-0.338 0.288-0.262 0.644-0.825 0.644-1.013 0-0.037 0.063-0.219 0.144-0.394 0.1-0.237 0.144-0.287 0.156-0.194 0.012 0.069-0.019 0.25-0.069 0.394zM20.938 11.594c0 0.069-0.413 0.281-0.544 0.281-0.181 0-0.181-0.088-0.006-0.213 0.131-0.094 0.55-0.144 0.55-0.069zM22.131 12c0.063 0.037 0.163 0.169 0.212 0.294 0.35 0.838-0.906 1.869-1.931 1.581-0.35-0.1-0.719-0.463-0.769-0.762-0.031-0.206-0.006-0.256 0.262-0.544l0.294-0.319 0.181 0.269c0.094 0.144 0.281 0.369 0.413 0.5l0.244 0.231 0.137-0.144c0.075-0.075 0.175-0.256 0.225-0.387 0.044-0.137 0.119-0.244 0.156-0.238 0.038 0.012 0.069-0.044 0.069-0.125 0-0.181 0.163-0.419 0.288-0.419 0.056 0 0.15 0.031 0.219 0.063zM22.819 12.894c-0.038 0.119-0.175 0.306-0.3 0.425l-0.225 0.213 0.194-0.269c0.106-0.15 0.212-0.363 0.238-0.469 0.019-0.113 0.056-0.231 0.075-0.262 0.075-0.119 0.087 0.156 0.019 0.363zM25.5 13.625c0 0.031-0.056 0.063-0.125 0.063s-0.125-0.031-0.125-0.063c0-0.037 0.056-0.063 0.125-0.063s0.125 0.025 0.125 0.063zM24.656 14.125c-0.019 0.031-0.075 0.063-0.113 0.063-0.044 0-0.038-0.025 0.019-0.063 0.119-0.075 0.144-0.075 0.094 0zM24.781 14.469c-0.137 0.119-0.275 0.213-0.313 0.213-0.031 0.006-0.019-0.025 0.031-0.063 0.069-0.050 0.044-0.056-0.106-0.031-0.188 0.031-0.331-0.044-0.244-0.131 0.019-0.019 0.212-0.069 0.425-0.113 0.219-0.044 0.406-0.081 0.425-0.088 0.019 0-0.081 0.094-0.219 0.213zM24.356 14.725c-0.019 0.019-0.075 0.025-0.119 0.006-0.050-0.019-0.031-0.037 0.038-0.037 0.069-0.006 0.106 0.012 0.081 0.031zM24.563 15.037c0 0.056-0.425 0.213-0.575 0.213-0.206 0-0.063-0.113 0.231-0.181 0.325-0.075 0.344-0.075 0.344-0.031zM22.469 16.719c-0.212 0.1-0.462 0.125-0.369 0.038 0.063-0.063 0.25-0.119 0.431-0.119 0.094 0 0.075 0.019-0.063 0.081zM26.406 20c0.025 0.038-0.031 0.063-0.119 0.063s-0.163-0.031-0.163-0.063c0-0.038 0.056-0.063 0.119-0.063 0.069 0 0.144 0.025 0.163 0.063zM27.744 20.575c0.063 0.044 0.244 0.2 0.413 0.344 0.25 0.225 0.275 0.269 0.163 0.269-0.075 0-0.125-0.025-0.106-0.056 0.056-0.081-0.519-0.569-0.675-0.575-0.262-0.019-0.681 0.006-0.712 0.038-0.019 0.019 0.075 0.131 0.212 0.256l0.244 0.225-0.3-0.238c-0.163-0.125-0.275-0.25-0.25-0.281 0.144-0.131 0.813-0.125 1.012 0.019zM27.6 21.256c0.019 0.038-0.031 0.019-0.125-0.038-0.087-0.063-0.163-0.119-0.163-0.137 0-0.044 0.244 0.106 0.288 0.175zM28.156 21.75c0.206 0.206 0.356 0.375 0.337 0.375-0.012 0-0.194-0.169-0.4-0.375s-0.356-0.375-0.337-0.375c0.012 0 0.194 0.169 0.4 0.375zM30.969 22.375c0.025 0.038-0.056 0.063-0.2 0.063-0.175 0-0.212-0.019-0.144-0.063 0.125-0.081 0.294-0.081 0.344 0zM31.294 27.387c-0.019 0.050-0.038 0.031-0.038-0.038-0.006-0.069 0.012-0.106 0.031-0.081 0.019 0.019 0.025 0.075 0.006 0.119zM30.469 27.813c0.063 0.069 0.1 0.125 0.081 0.125s-0.081-0.056-0.144-0.125c-0.063-0.069-0.1-0.125-0.081-0.125s0.081 0.056 0.144 0.125zM30.756 28.044c0.081 0.1 0.075 0.106-0.019 0.025-0.106-0.081-0.137-0.131-0.087-0.131 0.012 0 0.063 0.050 0.106 0.106zM25.969 29c0.081 0.038 0.094 0.056 0.031 0.056-0.050 0-0.137-0.025-0.188-0.056-0.113-0.075-0.012-0.075 0.156 0z"></path>
<path d="M20.031 12.744c-0.087 0.181-0.087 0.194 0.006 0.194 0.063 0 0.238 0.075 0.394 0.162l0.288 0.169-0.163-0.181c-0.087-0.1-0.219-0.262-0.294-0.356l-0.131-0.175-0.1 0.188z"></path>
<path d="M7.431 1.288c0.219 0.050 0.412 0.075 0.425 0.063 0.031-0.031-0.575-0.163-0.719-0.156-0.056 0.006 0.075 0.044 0.294 0.094z"></path>
<path d="M26.769 1.669c0.056 0.012 0.144 0.012 0.188 0 0.038-0.019-0.006-0.031-0.113-0.031-0.1 0-0.137 0.012-0.075 0.031z"></path>
<path d="M26.081 1.731c0.094 0.012 0.244 0.012 0.344 0 0.094-0.012 0.012-0.025-0.175-0.025s-0.269 0.012-0.169 0.025z"></path>
<path d="M21.225 2.094c-0.056 0.087-0.144 0.231-0.2 0.325l-0.1 0.175 0.125-0.15c0.15-0.181 0.344-0.506 0.306-0.506-0.019 0-0.075 0.069-0.131 0.156z"></path>
<path d="M7.269 2.106c0.056 0.013 0.144 0.013 0.188 0 0.037-0.019-0.006-0.031-0.112-0.031-0.1 0-0.138 0.013-0.075 0.031z"></path>
<path d="M8.050 2.231c0.044 0.019 0.1 0.013 0.119-0.006 0.025-0.019-0.012-0.038-0.081-0.031-0.069 0-0.088 0.019-0.037 0.038z"></path>
<path d="M8.3 2.294c0.044 0.019 0.1 0.013 0.119-0.006 0.025-0.019-0.012-0.038-0.081-0.031-0.069 0-0.088 0.019-0.037 0.038z"></path>
<path d="M25.55 2.669c0.044 0.019 0.1 0.013 0.119-0.006 0.025-0.019-0.012-0.038-0.081-0.031-0.069 0-0.087 0.019-0.038 0.038z"></path>
<path d="M7.606 3.069c0.050 0.044 0.7 0.181 0.888 0.181 0.206 0-0.006-0.069-0.456-0.15-0.269-0.044-0.463-0.063-0.431-0.031z"></path>
<path d="M12.588 3.219c0.019 0.1 0.063 0.362 0.106 0.575 0.119 0.638 0.244 0.713 0.506 0.306 0.069-0.106 0.106-0.138 0.081-0.069s-0.063 0.194-0.075 0.281l-0.031 0.156 0.1-0.138c0.088-0.119 0.287-0.6 0.287-0.688 0-0.019-0.044 0-0.1 0.050-0.081 0.063-0.106 0.063-0.15-0.006-0.031-0.044-0.144-0.112-0.256-0.15-0.119-0.038-0.275-0.163-0.356-0.288l-0.15-0.219 0.037 0.188z"></path>
<path d="M25.244 3.194c0.294 0.063 0.538 0.106 0.556 0.094 0.031-0.031-0.825-0.225-0.969-0.219-0.063 0 0.125 0.056 0.413 0.125z"></path>
<path d="M7.175 3.169c0.044 0.019 0.1 0.013 0.119-0.006 0.025-0.019-0.013-0.038-0.081-0.031-0.069 0-0.088 0.019-0.037 0.038z"></path>
<path d="M15.2 3.5c0 0.087 0.012 0.119 0.031 0.075 0.012-0.038 0.012-0.112 0-0.156-0.019-0.038-0.031-0.006-0.031 0.081z"></path>
<path d="M26.363 3.481c0.044 0.019 0.1 0.013 0.119-0.006 0.025-0.019-0.012-0.038-0.081-0.031-0.069 0-0.087 0.019-0.038 0.038z"></path>
<path d="M10.469 3.875c0.063 0.069 0.125 0.125 0.144 0.125s-0.019-0.056-0.081-0.125c-0.063-0.069-0.125-0.125-0.144-0.125s0.019 0.056 0.081 0.125z"></path>
<path d="M7.631 4.131c-0.119 0.037-0.188 0.088-0.156 0.119 0.075 0.069 0.544-0.013 0.537-0.094-0.006-0.088-0.131-0.094-0.381-0.025z"></path>
<path d="M8.281 4.244c-0.188 0.050-0.188 0.050-0.031 0.088 0.088 0.019 0.313 0.063 0.512 0.106 0.575 0.112 0.931 0.331 1.5 0.925 0.5 0.525 1.219 1.406 1.456 1.794l0.119 0.188-0.338-0.3-0.006 0.181c-0.006 0.175-0.006 0.175-0.050 0.025-0.037-0.138-0.050-0.144-0.088-0.044-0.025 0.063-0.044 0.213-0.044 0.331 0 0.256-0.075 0.275-0.175 0.037l-0.075-0.169 0.063 0.375-0.119-0.144c-0.137-0.156-0.225-0.181-0.169-0.044 0.025 0.075 0 0.088-0.119 0.056-0.175-0.044-0.2 0.031-0.088 0.237 0.1 0.188 0.012 0.213-0.162 0.050-0.169-0.156-0.2-0.131-0.094 0.069 0.056 0.106 0.044 0.119-0.1 0.119-0.119 0-0.156 0.025-0.125 0.094 0.025 0.069-0.012 0.094-0.137 0.094-0.156 0-0.15 0.012 0.113 0.181 0.156 0.094 0.338 0.238 0.4 0.313 0.119 0.131 0.119 0.131-0.063 0.131-0.1 0-0.3-0.056-0.45-0.125-0.144-0.069-0.25-0.1-0.238-0.069 0.044 0.069 0.581 0.275 1.1 0.425 0.244 0.069 0.544 0.219 0.762 0.375 0.2 0.15 0.381 0.269 0.4 0.269 0.075 0-0.131-0.206-0.375-0.387-0.131-0.094-0.231-0.175-0.213-0.175 0.069 0 0.463 0.194 0.606 0.294 0.113 0.081 0.075 0-0.144-0.338-0.156-0.244-0.287-0.475-0.287-0.512 0-0.113 0.113-0.075 0.156 0.050 0.019 0.069 0.081 0.137 0.137 0.162 0.1 0.031 0.1 0.025 0.006-0.075-0.056-0.063-0.131-0.231-0.175-0.381-0.037-0.15-0.081-0.319-0.1-0.375-0.012-0.056 0.012-0.025 0.056 0.069 0.050 0.1 0.144 0.256 0.219 0.344 0.294 0.375 0.637 0.856 0.637 0.9 0 0.031-0.075 0-0.169-0.056-0.162-0.106-0.162-0.1 0.044 0.156 0.119 0.15 0.294 0.363 0.381 0.481 0.356 0.463 1.075 1.188 1.025 1.031-0.025-0.088-0.050-0.2-0.056-0.25s-0.1-0.15-0.219-0.219c-0.113-0.069-0.244-0.219-0.294-0.331-0.044-0.113-0.056-0.188-0.025-0.169 0.063 0.037 0.094-0.162 0.075-0.456 0-0.075 0.025-0.137 0.063-0.137 0.044 0 0.056-0.094 0.031-0.25-0.019-0.137-0.006-0.25 0.025-0.25s0.037-0.094 0.012-0.206c-0.037-0.181-0.031-0.194 0.063-0.113 0.094 0.075 0.106 0.069 0.106-0.031 0-0.069-0.094-0.412-0.213-0.775-0.113-0.362-0.256-0.881-0.319-1.156-0.162-0.737-0.156-0.737-0.338-0.588l-0.15 0.119 0.137 0.694c0.075 0.381 0.125 0.706 0.113 0.725-0.019 0.013-0.094-0.25-0.169-0.581-0.125-0.537-0.15-0.6-0.225-0.5-0.044 0.063-0.106 0.094-0.144 0.069-0.044-0.025-0.069 0.025-0.069 0.125 0 0.094-0.025 0.15-0.063 0.125-0.031-0.019-0.063 0.019-0.063 0.088 0 0.075-0.019 0.125-0.044 0.125-0.144-0.025-0.125 0.050 0.113 0.487 0.294 0.544 0.25 0.544-0.113 0.006-0.975-1.463-2.25-2.888-2.831-3.162-0.331-0.156-0.706-0.213-0.969-0.144zM13.113 7.875v0.219l-0.050-0.219c-0.025-0.119-0.063-0.362-0.081-0.531l-0.037-0.313 0.088 0.313c0.044 0.169 0.081 0.412 0.081 0.531zM12.188 8.444c0.094 0.175 0.031 0.144-0.094-0.044-0.056-0.094-0.075-0.144-0.037-0.125 0.037 0.025 0.1 0.1 0.131 0.169z"></path>
<path d="M15.481 4.25c-0.019 0.050-0.050 0.2-0.069 0.331-0.037 0.281 0.081 0.294 0.156 0.019 0.050-0.194-0.031-0.519-0.088-0.35z"></path>
<path d="M6.938 4.313c-0.050 0.031-0.063 0.063-0.031 0.063 0.037 0 0.106-0.031 0.156-0.063s0.069-0.063 0.031-0.063c-0.031 0-0.106 0.031-0.156 0.063z"></path>
<path d="M8.575 4.656c0.063 0.069 0.613 0.206 0.613 0.15 0-0.025-0.106-0.081-0.231-0.112-0.25-0.075-0.438-0.088-0.381-0.037z"></path>
<path d="M6.344 5.031c-0.138 0.044-0.194 0.081-0.125 0.088 0.069 0 0.213-0.037 0.313-0.088 0.237-0.106 0.138-0.106-0.188 0z"></path>
<path d="M20.906 5.219c-0.019 0.162-0.025 0.306-0.012 0.319 0.019 0.019 0.050-0.1 0.075-0.256 0.019-0.162 0.025-0.306 0.012-0.319-0.019-0.019-0.050 0.1-0.075 0.256z"></path>
<path d="M10.813 5.044c0 0.037 0.031 0.094 0.063 0.112 0.037 0.019 0.094 0.162 0.131 0.319s0.088 0.269 0.1 0.25c0.044-0.044-0.094-0.5-0.194-0.631-0.056-0.069-0.1-0.094-0.1-0.050z"></path>
<path d="M21.306 5.3c-0.038 0.131-0.056 0.306-0.044 0.388l0.025 0.156 0.069-0.156c0.038-0.088 0.081-0.263 0.106-0.394 0.056-0.306-0.063-0.306-0.156 0.006z"></path>
<path d="M5.925 5.169c0.044 0.019 0.1 0.013 0.119-0.006 0.025-0.019-0.013-0.037-0.081-0.031-0.069 0-0.088 0.019-0.037 0.037z"></path>
<path d="M8.375 5.156c0 0.013 0.119 0.056 0.269 0.094 0.162 0.044 0.363 0.169 0.531 0.331 0.269 0.263 0.375 0.481 0.125 0.25-0.15-0.131-0.381-0.269-0.463-0.269-0.075 0 0.425 0.431 0.625 0.537 0.106 0.056 0.238 0.162 0.306 0.237 0.113 0.131 0.113 0.125 0-0.081-0.063-0.119-0.294-0.406-0.519-0.638-0.325-0.338-0.456-0.425-0.637-0.45-0.131-0.019-0.238-0.025-0.238-0.013z"></path>
<path d="M6.156 5.256c-0.138 0.031-0.313 0.069-0.388 0.088-0.169 0.037-0.194 0.156-0.031 0.156 0.056 0 0.306-0.069 0.544-0.156 0.431-0.144 0.362-0.194-0.125-0.088z"></path>
<path d="M7.688 5.375c0.188 0.037 0.419 0.119 0.512 0.188 0.213 0.156 0.794 0.5 0.844 0.5 0.019 0-0.012-0.056-0.081-0.131-0.2-0.225-0.944-0.563-1.294-0.588l-0.325-0.025 0.344 0.056z"></path>
<path d="M15.031 5.563c0.019 0.031 0.050 0.063 0.069 0.063 0.012 0 0.025-0.031 0.025-0.063 0-0.037-0.031-0.063-0.069-0.063-0.031 0-0.044 0.025-0.025 0.063z"></path>
<path d="M8 5.656c0.206 0.119 0.313 0.112 0.162 0-0.069-0.050-0.169-0.094-0.219-0.094-0.063 0.006-0.044 0.037 0.056 0.094z"></path>
<path d="M10.262 5.806c0.075 0.138 0.15 0.237 0.162 0.225 0.031-0.025-0.231-0.469-0.275-0.469-0.019 0 0.037 0.112 0.113 0.244z"></path>
<path d="M20.819 5.725c0 0.069 0.019 0.088 0.038 0.037 0.019-0.044 0.012-0.1-0.006-0.119-0.019-0.025-0.038 0.013-0.031 0.081z"></path>
<path d="M7.063 5.781l-0.219 0.088 0.25-0.031c0.138-0.019 0.463 0.006 0.719 0.063 0.438 0.088 0.488 0.119 0.775 0.425 0.256 0.269 0.287 0.294 0.188 0.119-0.35-0.612-1.1-0.9-1.713-0.662z"></path>
<path d="M9.875 5.725c0 0.031 0.031 0.094 0.069 0.131s0.131 0.244 0.213 0.463c0.15 0.4 0.219 0.388 0.081-0.013-0.075-0.231-0.363-0.688-0.363-0.581z"></path>
<path d="M23.913 5.938c-0.175 0.069-0.356 0.169-0.406 0.225-0.087 0.088-0.087 0.1-0.006 0.069 0.050-0.019 0.275-0.094 0.5-0.162 0.225-0.075 0.45-0.156 0.5-0.194 0.169-0.112-0.256-0.063-0.587 0.063z"></path>
<path d="M8.787 6.125c0.025 0.050 0.113 0.181 0.188 0.287 0.081 0.1 0.194 0.294 0.244 0.425 0.056 0.131 0.113 0.225 0.131 0.206 0.050-0.044-0.256-0.606-0.45-0.825-0.088-0.106-0.144-0.144-0.113-0.094z"></path>
<path d="M23.125 6.344c-0.113 0.119-0.194 0.231-0.181 0.25 0.019 0.013 0.131-0.069 0.244-0.188s0.194-0.231 0.181-0.25c-0.019-0.013-0.131 0.069-0.244 0.188z"></path>
<path d="M9.419 6.625c0.131 0.2 0.244 0.356 0.262 0.344 0.025-0.031-0.412-0.719-0.463-0.719-0.019 0 0.075 0.169 0.2 0.375z"></path>
<path d="M18.375 6.987c0 0.112-0.031 0.2-0.069 0.2-0.044 0-0.063 0.075-0.044 0.188 0.025 0.156 0.012 0.175-0.063 0.106-0.081-0.069-0.087 0.006-0.056 0.569 0.038 0.619 0.2 1.325 0.306 1.325 0.025 0 0.038-0.344 0.019-0.769-0.025-0.694-0.019-0.75 0.069-0.606 0.094 0.156 0.094 0.156 0.050-0.056-0.031-0.175-0.025-0.206 0.056-0.175 0.087 0.031 0.094 0.013 0.038-0.125-0.050-0.125-0.044-0.15 0.031-0.125 0.069 0.025 0.063-0.031-0.038-0.256-0.069-0.162-0.163-0.338-0.212-0.388-0.075-0.075-0.087-0.063-0.087 0.112z"></path>
<path d="M24.844 7.213c-0.425 0.2-0.844 0.525-0.844 0.65 0 0.037 0.087-0.019 0.2-0.125 0.262-0.244 0.45-0.338 0.95-0.463 0.337-0.081 0.4-0.119 0.344-0.188-0.1-0.125-0.163-0.112-0.65 0.125z"></path>
<path d="M6.563 7.431c0 0.037 0.156 0.162 0.344 0.281 0.188 0.125 0.412 0.331 0.506 0.475 0.181 0.269 0.231 0.313 0.169 0.137-0.075-0.206-0.362-0.569-0.519-0.65-0.088-0.044-0.231-0.131-0.325-0.194-0.1-0.063-0.175-0.088-0.175-0.050z"></path>
<path d="M22.113 7.838c-0.275 0.238-0.3 0.313-0.081 0.213 0.087-0.037 0.156-0.1 0.156-0.131 0-0.037 0.044-0.119 0.106-0.181 0.156-0.175 0.075-0.131-0.181 0.1z"></path>
<path d="M22.319 7.919c-0.006 0.112-0.094 0.181-0.394 0.319-0.406 0.181-0.731 0.456-0.438 0.363 0.212-0.069 0.169 0.069-0.094 0.313-0.294 0.275-0.2 0.269 0.219 0 0.344-0.231 0.519-0.2 0.2 0.031-0.1 0.081-0.188 0.169-0.188 0.194 0 0.031-0.075 0.125-0.169 0.213l-0.175 0.156 0.244-0.1c0.7-0.275 0.344 0.1-0.531 0.569-0.306 0.162-0.55 0.306-0.538 0.319 0.019 0.012 0.238-0.088 0.488-0.225 0.744-0.4 1.294-0.35 0.587 0.056-0.188 0.106-0.344 0.206-0.344 0.213 0 0.012 0.144-0.019 0.325-0.063 0.181-0.050 0.712-0.106 1.188-0.125 0.688-0.037 0.9-0.069 1.056-0.162 0.244-0.15 0.194-0.219-0.063-0.088-0.1 0.056-0.294 0.1-0.425 0.1l-0.238-0.006 0.188-0.081c0.175-0.075 0.156-0.081-0.219-0.050-0.325 0.019-0.425 0.006-0.494-0.069-0.069-0.088-0.038-0.113 0.225-0.194l0.3-0.094h-0.294c-0.169-0.006-0.3-0.025-0.3-0.056 0-0.025 0.238-0.169 0.531-0.313 0.294-0.15 0.563-0.331 0.6-0.394 0.075-0.144-0.019-0.156-0.137-0.019-0.081 0.1-0.512 0.338-0.6 0.338-0.025 0 0.063-0.075 0.2-0.156 0.288-0.181 0.225-0.2-0.194-0.056-0.294 0.1-0.506 0.081-0.431-0.037 0.025-0.037 0.156-0.137 0.294-0.225 0.306-0.194 0.281-0.25-0.050-0.113-0.188 0.081-0.225 0.081-0.163 0.012 0.038-0.050 0.119-0.194 0.169-0.325l0.1-0.237-0.188 0.044c-0.144 0.031-0.188 0.013-0.212-0.075s-0.031-0.081-0.038 0.025z"></path>
<path d="M8.25 9c0.050 0.031 0.125 0.063 0.156 0.063 0.037 0 0.019-0.031-0.031-0.063s-0.119-0.063-0.156-0.063c-0.031 0-0.019 0.031 0.031 0.063z"></path>
<path d="M20.619 9.169c-0.081 0.1-0.075 0.106 0.025 0.025s0.131-0.131 0.081-0.131c-0.012 0-0.063 0.050-0.106 0.106z"></path>
<path d="M24.025 9.444c-0.119 0.137-0.119 0.137 0.025 0.063 0.075-0.037 0.137-0.1 0.137-0.131 0-0.094-0.031-0.075-0.163 0.069z"></path>
<path d="M5.719 9.438c0.025 0.037 0.3 0.063 0.644 0.056 0.494-0.006 0.556-0.019 0.356-0.063-0.362-0.075-1.050-0.069-1 0.006z"></path>
<path d="M12.313 9.869c0 0.031 0.075 0.144 0.162 0.238s0.137 0.137 0.119 0.088c-0.037-0.063-0.012-0.069 0.1-0.037 0.081 0.025 0.137 0.037 0.119 0.019-0.231-0.188-0.5-0.356-0.5-0.306z"></path>
<path d="M18.469 10.131c0.025 0.188-0.006 0.281-0.181 0.55-0.119 0.175-0.306 0.55-0.419 0.831-0.169 0.45-0.2 0.594-0.2 1.081 0 0.344-0.019 0.512-0.050 0.438-0.025-0.069-0.050-0.206-0.050-0.306-0.006-0.1-0.025-0.169-0.044-0.144-0.069 0.069 0.038 0.713 0.137 0.831 0.087 0.113 0.094 0.106 0.056-0.069l-0.038-0.188 0.125 0.194c0.188 0.3 0.225 0.294 0.238-0.056 0.019-0.606 0.125-1.262 0.262-1.594 0.188-0.463 0.381-0.844 0.419-0.806 0.019 0.019-0.025 0.144-0.094 0.287-0.075 0.137-0.131 0.3-0.131 0.356 0 0.094 0.025 0.088 0.163-0.044 0.087-0.081 0.262-0.281 0.381-0.45 0.119-0.162 0.256-0.294 0.3-0.294 0.113 0 0.2-0.125 0.25-0.344 0.025-0.106 0.019-0.156-0.012-0.119-0.063 0.088-0.331 0.231-0.369 0.194-0.012-0.012 0.031-0.075 0.1-0.137 0.113-0.1 0.175-0.281 0.094-0.281-0.019 0-0.119 0.094-0.219 0.2-0.175 0.2-0.181 0.2-0.188 0.063 0-0.081-0.025-0.131-0.056-0.113-0.031 0.025-0.044-0.025-0.025-0.1l0.038-0.144-0.163 0.15c-0.188 0.169-0.194 0.162-0.294-0.056-0.056-0.137-0.063-0.131-0.031 0.069z"></path>
<path d="M17.762 10.125c0 0.088 0.012 0.119 0.031 0.075 0.012-0.037 0.012-0.113 0-0.156-0.019-0.037-0.031-0.006-0.031 0.081z"></path>
<path d="M18.25 10.181c0 0.1-0.031 0.262-0.063 0.363-0.056 0.162-0.056 0.169 0.031 0.056s0.137-0.6 0.063-0.6c-0.019 0-0.031 0.081-0.031 0.181z"></path>
<path d="M17.35 10.144c0.019 0.063 0.056 0.094 0.075 0.075s0-0.069-0.044-0.113c-0.063-0.056-0.069-0.050-0.031 0.037z"></path>
<path d="M23.738 10.219c-0.194 0.031-0.375 0.081-0.4 0.106-0.063 0.069 0.613 0.063 0.719-0.006 0.175-0.113 0.025-0.162-0.319-0.1z"></path>
<path d="M8.456 10.231c0.056 0.012 0.156 0.012 0.219 0 0.056-0.019 0.006-0.031-0.113-0.031s-0.169 0.012-0.106 0.031z"></path>
<path d="M17.825 10.438c0 0.088 0.012 0.119 0.031 0.075 0.012-0.037 0.012-0.113 0-0.156-0.019-0.037-0.031-0.006-0.031 0.081z"></path>
<path d="M10.762 10.444c-0.15 0.025-0.512 0.175-0.813 0.331-0.65 0.325-1.231 0.506-1.919 0.6-0.625 0.081-1.15 0.325-1.275 0.594-0.050 0.1-0.3 0.394-0.556 0.65-0.431 0.419-0.463 0.469-0.362 0.537 0.1 0.075 0.094 0.094-0.081 0.256-0.231 0.206-0.213 0.256 0.050 0.125 0.1-0.056 0.2-0.1 0.219-0.1 0.063 0-0.044 0.219-0.144 0.306-0.069 0.056-0.075 0.094-0.025 0.113s0.013 0.131-0.119 0.35c-0.206 0.363-0.4 0.544-0.756 0.738-0.3 0.156-0.263 0.225 0.050 0.094 0.131-0.056 0.319-0.1 0.425-0.1 0.188 0 0.188 0 0.069 0.131-0.063 0.075-0.188 0.169-0.275 0.213-0.181 0.088-0.938 0.244-0.981 0.2-0.056-0.063 0.194-0.363 0.381-0.463 0.106-0.056 0.319-0.194 0.469-0.313 0.237-0.175 0.256-0.206 0.131-0.206-0.138 0-0.144-0.006-0.031-0.125s0.106-0.125-0.175-0.1c-0.162 0.012-0.362 0.069-0.45 0.125-0.162 0.106-0.162 0.106-0.1-0.019 0.037-0.069 0.069-0.169 0.069-0.225 0-0.081-0.025-0.088-0.131-0.031-0.119 0.069-0.125 0.056-0.088-0.169l0.037-0.238-0.175 0.2c-0.094 0.113-0.275 0.275-0.394 0.363s-0.219 0.188-0.219 0.219c0 0.031-0.056 0.1-0.125 0.15-0.112 0.088-0.106 0.088 0.112 0.031 0.131-0.037 0.3-0.056 0.375-0.044 0.125 0.019 0.119 0.031-0.063 0.131-0.112 0.056-0.256 0.106-0.325 0.106s-0.144 0.031-0.169 0.069c-0.038 0.069 0.056 0.056 0.519-0.050 0.1-0.019 0.156 0 0.188 0.075 0.050 0.144-0.131 0.281-0.381 0.287-0.156 0.006-0.169 0.019-0.050 0.037 0.144 0.025 0.144 0.031 0.038 0.15-0.1 0.113-0.1 0.119 0.013 0.119 0.156 0 0.4 0.169 0.4 0.281 0 0.044-0.075 0.175-0.163 0.281l-0.169 0.194 0.169-0.044c0.306-0.075 0.206 0.038-0.431 0.512-0.119 0.087-0.112 0.094 0.094 0.056 0.119-0.025 0.319-0.113 0.438-0.194 0.2-0.131 0.225-0.175 0.2-0.381-0.013-0.181-0.006-0.212 0.044-0.144 0.037 0.050 0.050 0.144 0.031 0.2-0.044 0.144-0.019 0.144 0.256-0.019 0.237-0.137 0.263-0.244 0.031-0.119-0.119 0.063-0.125 0.056-0.056-0.044 0.119-0.194 0.594-0.531 0.9-0.65 0.369-0.144 0.531-0.281 0.25-0.219-0.156 0.037-0.138 0.012 0.125-0.156 0.294-0.181 0.3-0.188 0.112-0.156-0.225 0.037-0.294-0.075-0.081-0.131 0.138-0.037 0.35-0.325 0.325-0.444-0.013-0.037 0.056-0.106 0.144-0.15 0.162-0.075 0.213-0.175 0.081-0.175-0.188-0.006 0.375-0.244 0.581-0.25 0.194 0 0.256 0.037 0.406 0.231 0.094 0.125 0.263 0.306 0.362 0.406l0.194 0.175-0.375-0.063 0.188 0.063c0.106 0.037 0.344 0.119 0.531 0.175 0.319 0.1 0.469 0.194 0.406 0.256-0.019 0.012-0.063-0.006-0.106-0.037-0.125-0.1-0.725-0.281-0.819-0.25-0.037 0.012 0.119 0.119 0.35 0.231 0.238 0.106 0.419 0.213 0.406 0.219-0.012 0.012-0.188-0.031-0.387-0.1-0.45-0.144-0.519-0.113-0.15 0.075 0.144 0.075 0.444 0.231 0.662 0.344l0.4 0.213h-0.319c-0.188 0-0.319 0.025-0.319 0.069s-0.094 0.056-0.262 0.025c-0.213-0.025-0.244-0.019-0.156 0.031 0.056 0.037 0.356 0.1 0.669 0.137 0.331 0.044 0.544 0.094 0.519 0.131-0.056 0.094-1.319 0.012-1.638-0.106-0.406-0.15-0.525-0.131-0.494 0.056 0.025 0.119 0 0.163-0.131 0.212-0.088 0.031-0.219 0.1-0.287 0.156-0.119 0.087-0.112 0.094 0.112 0.056 0.281-0.044 0.294 0.006 0.037 0.144-0.15 0.075-0.175 0.113-0.112 0.15 0.056 0.038 0.031 0.075-0.106 0.131-0.594 0.244-0.987 0.444-1.194 0.606-0.131 0.1-0.394 0.244-0.588 0.319-0.3 0.119-0.375 0.125-0.519 0.056-0.15-0.063-0.188-0.063-0.25 0.025-0.038 0.056-0.256 0.156-0.475 0.225-0.225 0.075-0.362 0.131-0.313 0.131 0.050 0.006 0.231-0.038 0.4-0.087 0.362-0.113 0.431-0.119 0.381-0.031-0.050 0.081 0.006 0.081 0.162-0.006 0.075-0.038 0.169-0.050 0.219-0.031 0.075 0.031 0.069 0.075-0.037 0.288-0.138 0.269-0.125 0.375 0.050 0.375 0.181 0-0.006 0.1-0.581 0.313-1.6 0.587-2.881 1.419-3.606 2.331-0.131 0.169-0.237 0.337-0.237 0.369 0 0.038 0.081-0.044 0.175-0.175 0.563-0.769 1.781-1.65 3.006-2.156 1.294-0.544 1.5-0.644 1.469-0.694-0.019-0.031 0-0.1 0.050-0.156 0.075-0.094 0.069-0.094-0.056-0.031-0.213 0.113-0.231-0.012-0.050-0.288 0.094-0.137 0.294-0.319 0.463-0.413 0.344-0.181 0.694-0.219 0.694-0.069 0 0.050 0.044 0.094 0.1 0.094 0.050 0 0.138 0.044 0.188 0.094 0.088 0.081 0.075 0.1-0.069 0.156-0.088 0.031-0.231 0.081-0.319 0.1-0.112 0.031-0.138 0.063-0.088 0.119 0.031 0.038 0.044 0.094 0.025 0.113s0.112-0.006 0.294-0.056c0.925-0.244 2.406-0.475 3.681-0.563 0.738-0.050 1.512-0.119 1.719-0.144l0.375-0.056-0.438-0.006c-0.238 0-0.944 0.038-1.563 0.087s-1.144 0.094-1.169 0.094c-0.019 0-0.006-0.069 0.031-0.15 0.050-0.106 0.144-0.169 0.294-0.194 0.256-0.050 0.563-0.2 0.563-0.275 0-0.031-0.1-0.075-0.225-0.1-0.331-0.056-0.2-0.119 0.275-0.131 0.231-0.006 0.544-0.012 0.7-0.019l0.281-0.019-0.438-0.175 0.281 0.031c0.156 0.019 0.381 0.050 0.5 0.069l0.219 0.031-0.219-0.1c-0.119-0.056-0.387-0.144-0.594-0.188l-0.375-0.081 0.287-0.006c0.162-0.006 0.387 0.031 0.5 0.081 0.119 0.044 0.306 0.106 0.425 0.131 0.181 0.038 0.206 0.031 0.175-0.056-0.031-0.081 0.006-0.1 0.175-0.1 0.262 0 0.275 0.031 0.050 0.15-0.269 0.144-0.031 0.113 0.419-0.056l0.406-0.15h-0.262c-0.262-0.006-0.406-0.087-0.25-0.15 0.044-0.019 0.306-0.069 0.575-0.113 0.331-0.050 0.45-0.094 0.369-0.119-0.106-0.038-0.094-0.063 0.1-0.181 0.119-0.069 0.262-0.131 0.313-0.131s0.162-0.019 0.244-0.044c0.113-0.025 0.137-0.012 0.119 0.050-0.037 0.106 0.094 0.244 0.225 0.244 0.050 0 0.194-0.044 0.306-0.1 0.206-0.1 0.219-0.1 0.363 0.044 0.081 0.081 0.15 0.163 0.15 0.181 0.006 0.044 0.169 0.337 0.213 0.375 0.106 0.087 0.313 0.438 0.262 0.438-0.031 0-0.081-0.031-0.1-0.063-0.050-0.087-0.156-0.081-0.156 0.012 0 0.169 0.331 0.475 0.713 0.663 0.225 0.113 0.412 0.231 0.412 0.269s-0.050 0.050-0.106 0.031c-0.081-0.031-0.075-0.012 0.025 0.069 0.075 0.063 0.181 0.225 0.238 0.363s0.169 0.325 0.256 0.413c0.087 0.094 0.169 0.231 0.175 0.313 0.012 0.081 0.031 0.175 0.044 0.212 0.031 0.1-0.075 0.35-0.131 0.313-0.031-0.019-0.1 0.044-0.15 0.144-0.106 0.206-0.287 0.375-0.287 0.269 0-0.038-0.119 0.019-0.262 0.119-0.15 0.1-0.675 0.344-1.175 0.538s-0.919 0.363-0.931 0.375c-0.056 0.056 0.863-0.056 1.113-0.137 0.306-0.094 0.406-0.075 0.194 0.038-0.075 0.038-0.119 0.087-0.1 0.106s0.15-0.031 0.3-0.113c0.15-0.081 0.325-0.144 0.394-0.144 0.069 0.006 0.169 0.012 0.219 0.019 0.069 0.006 0.050 0.044-0.063 0.131-0.225 0.175-0.113 0.219 0.181 0.063 0.281-0.144 0.294-0.131 0.169 0.113-0.044 0.094-0.106 0.238-0.131 0.319-0.069 0.212 0.081 0.106 0.194-0.144l0.081-0.194 0.012 0.563 0.156-0.188c0.131-0.163 0.15-0.231 0.119-0.531-0.025-0.288-0.019-0.319 0.038-0.188 0.038 0.087 0.050 0.294 0.031 0.481-0.019 0.175-0.012 0.337 0.019 0.356 0.069 0.044 0.131-0.106 0.137-0.356l0.006-0.2 0.056 0.2c0.069 0.231 0.212 0.288 0.163 0.063-0.019-0.075-0.056-0.225-0.075-0.325l-0.044-0.188 0.106 0.144c0.056 0.075 0.131 0.125 0.163 0.1 0.031-0.019 0.056-0.012 0.044 0.019-0.025 0.094 0.087 0.456 0.15 0.494 0.050 0.031 0.056-0.006 0.025-0.106-0.025-0.081-0.069-0.244-0.1-0.363l-0.050-0.212 0.244 0.244c0.131 0.131 0.244 0.2 0.244 0.156s0.025-0.063 0.056-0.044c0.031 0.025 0.044-0.025 0.019-0.1-0.031-0.131-0.025-0.137 0.087-0.050 0.063 0.056 0.231 0.15 0.369 0.206l0.25 0.106-0.169-0.125c-0.087-0.069-0.231-0.181-0.313-0.25l-0.144-0.125 0.175 0.063c0.094 0.031 0.256 0.106 0.363 0.156 0.1 0.056 0.344 0.106 0.531 0.119 0.306 0.012 0.337 0.006 0.337-0.119 0-0.15-0.113-0.281-0.238-0.281-0.050 0-0.225-0.069-0.394-0.156-0.181-0.087-0.306-0.125-0.306-0.081s-0.081-0.006-0.181-0.1c-0.125-0.119-0.188-0.15-0.206-0.094s-0.1 0.025-0.269-0.113c-0.131-0.113-0.256-0.188-0.281-0.175-0.075 0.050-0.3-0.244-0.363-0.469-0.038-0.119-0.069-0.169-0.069-0.106-0.006 0.069-0.038 0.094-0.075 0.069-0.106-0.063-0.025-0.488 0.131-0.712 0.169-0.238 0.906-0.844 1.331-1.094 0.387-0.231 0.6-0.55 0.488-0.731-0.063-0.1-0.056-0.144 0.031-0.244 0.075-0.081 0.094-0.169 0.063-0.319-0.025-0.113-0.050-0.35-0.063-0.519-0.031-0.575-0.344-1.025-1-1.431-0.681-0.425-0.938-0.838-1.044-1.694-0.044-0.363-0.050-0.356-0.031 0.131 0.019 0.512 0.025 0.537 0.444 1.244 0.15 0.262 0.087 0.906-0.094 0.906s-0.325 0.181-0.288 0.35c0.069 0.262-0.050 0.156-0.325-0.287-0.206-0.331-0.325-0.456-0.512-0.537-0.231-0.1-0.25-0.131-0.25-0.356 0-0.181 0.081-0.375 0.313-0.769 0.175-0.281 0.413-0.725 0.531-0.975 0.156-0.344 0.212-0.419 0.219-0.3 0.006 0.144 0.012 0.144 0.063 0.031 0.075-0.175 0.075-0.231 0-0.188-0.031 0.019-0.063 0.006-0.063-0.037s-0.238 0.325-0.525 0.825c-0.475 0.813-0.569 0.938-1 1.294-0.262 0.219-0.475 0.369-0.469 0.344 0.019-0.125-0.012-0.15-0.1-0.081-0.081 0.069-0.094 0.050-0.094-0.131 0-0.144-0.019-0.181-0.056-0.131-0.044 0.069-0.063 0.063-0.094-0.019-0.019-0.056-0.037-0.175-0.037-0.256 0-0.213-0.344-1.269-0.594-1.813-0.35-0.769-1.012-1.381-1.706-1.581-0.544-0.156-0.856-0.188-1.188-0.125zM11.162 11.244c-0.15 0.169 0.006 0.213 0.206 0.063 0.156-0.125 0.419-0.15 0.563-0.063 0.15 0.094-0.025 0.244-0.344 0.294-0.381 0.056-0.488 0.219-0.4 0.606 0.081 0.363 0.35 0.981 0.425 0.981 0.088 0 0.613-0.575 0.725-0.8 0.056-0.106 0.1-0.238 0.1-0.3 0-0.069 0.031-0.088 0.1-0.063 0.056 0.019 0.125 0.037 0.156 0.037 0.037 0 0.144 0.088 0.25 0.2 0.363 0.4 0.294 0.881-0.175 1.3-0.287 0.256-0.306 0.306-0.063 0.181 0.113-0.056 0.125-0.056 0.063 0.012-0.119 0.119-1.069 0.075-1.556-0.075-0.456-0.144-0.694-0.35-0.925-0.819s-0.225-0.85 0.031-1.137c0.1-0.119 0.338-0.287 0.512-0.375 0.394-0.188 0.475-0.2 0.331-0.044zM9.481 11.331c0.006 0.006 0.037 0.225 0.075 0.488 0.081 0.606 0.244 0.981 0.575 1.338 0.3 0.325 0.45 0.412 1.081 0.644 0.406 0.15 0.531 0.162 1.431 0.162 0.887 0.006 0.994 0.019 1.056 0.119 0.031 0.063 0.044 0.156 0.025 0.2-0.019 0.050-0.006 0.106 0.025 0.125 0.144 0.088 0.063 0.394-0.156 0.588-0.275 0.238-0.481 0.25-0.944 0.037-0.188-0.088-0.4-0.156-0.469-0.156-0.088 0-0.119-0.031-0.1-0.088 0.025-0.056-0.019-0.1-0.131-0.119-0.094-0.019-0.394-0.106-0.669-0.2-0.975-0.325-1.094-0.344-1.094-0.188 0 0.050-0.044 0.094-0.094 0.094s-0.094 0.019-0.094 0.044c0 0.075 0.206 0.269 0.294 0.269 0.044 0 0.081 0.031 0.081 0.069 0 0.050-0.075 0.063-0.2 0.037-0.281-0.044-1.425-0.588-1.425-0.669 0-0.037 0.031-0.050 0.063-0.031 0.037 0.019 0.063 0.012 0.063-0.019 0-0.037 0.063-0.050 0.144-0.037 0.269 0.056-0.681-0.4-1.206-0.575-0.294-0.094-0.606-0.231-0.706-0.3l-0.175-0.125 0.162-0.088c0.088-0.044 0.144-0.106 0.125-0.137-0.025-0.037 0.063-0.063 0.2-0.069 0.219 0 0.225-0.006 0.1-0.069-0.219-0.106-0.169-0.175 0.125-0.181 0.144-0.006 0.2-0.025 0.125-0.037-0.206-0.037-0.175-0.137 0.050-0.188 0.138-0.025 0.169-0.050 0.106-0.088-0.050-0.031 0.050-0.056 0.256-0.056 0.294 0 0.325-0.012 0.231-0.081-0.1-0.075-0.088-0.088 0.113-0.188 0.144-0.063 0.213-0.131 0.188-0.194-0.019-0.056 0.025-0.1 0.131-0.125s0.156-0.075 0.137-0.125c-0.056-0.137 0.031-0.175 0.269-0.131 0.119 0.025 0.225 0.050 0.231 0.050zM9.925 12.25c0.037 0.188 0.088 0.4 0.113 0.469 0.031 0.088 0.025 0.106-0.025 0.063-0.094-0.088-0.262-0.706-0.256-0.931 0-0.162 0.012-0.175 0.050-0.069 0.031 0.069 0.081 0.281 0.119 0.469zM13.75 13.375c0 0.113-0.269 0.375-0.381 0.375-0.031 0 0.025-0.125 0.119-0.275 0.169-0.275 0.262-0.313 0.262-0.1zM9.106 14.662c-0.019 0.019-0.075 0.025-0.119 0.006-0.050-0.019-0.031-0.037 0.037-0.037 0.069-0.006 0.106 0.012 0.081 0.031zM9.356 14.725c-0.019 0.019-0.075 0.025-0.119 0.006-0.050-0.019-0.031-0.037 0.037-0.037 0.069-0.006 0.106 0.012 0.081 0.031zM13.375 15.6c0 0.044-0.412 0.213-0.512 0.213-0.15-0.006 0.213-0.25 0.363-0.25 0.081 0 0.15 0.012 0.15 0.037zM16.275 16.344c0.050 0.144-0.025 0.281-0.188 0.319-0.238 0.063-0.275 0.006-0.144-0.212 0.137-0.212 0.269-0.256 0.331-0.106zM17.681 16.525c-0.050 0.050-0.15 0.106-0.231 0.131-0.131 0.038-0.137 0.031-0.063-0.087 0.044-0.069 0.131-0.137 0.206-0.144 0.169-0.031 0.2 0 0.087 0.1zM17.044 16.788c-0.019 0.019-0.075 0.025-0.119 0.006-0.050-0.019-0.031-0.038 0.038-0.038 0.069-0.006 0.106 0.012 0.081 0.031zM16.794 16.85c-0.019 0.019-0.075 0.025-0.119 0.006-0.050-0.019-0.031-0.038 0.038-0.038 0.069-0.006 0.106 0.012 0.081 0.031zM6.412 17.281c-0.069 0.050-0.213 0.094-0.313 0.094-0.181-0.006-0.188-0.006-0.075-0.094 0.069-0.050 0.213-0.094 0.313-0.094 0.181 0.006 0.188 0.006 0.075 0.094zM17.625 18.094c0 0.050-0.094 0.137-0.2 0.194l-0.206 0.1 0.181-0.194c0.212-0.219 0.225-0.225 0.225-0.1z"></path>
<path d="M23.938 10.537c-0.119 0.044-0.288 0.081-0.375 0.088l-0.156 0.012 0.175 0.063c0.194 0.069 0.212 0.137 0.063 0.238-0.087 0.056-0.063 0.063 0.137 0.031 0.137-0.019 0.556-0.050 0.925-0.075 0.375-0.019 0.644-0.063 0.594-0.088-0.044-0.025-0.381-0.025-0.738 0.006-0.706 0.063-0.894 0.012-0.569-0.15 0.106-0.056 0.194-0.131 0.194-0.162 0-0.037-0.006-0.056-0.012-0.056-0.012 0.006-0.119 0.044-0.238 0.094z"></path>
<path d="M8.55 10.544c0.044 0.019 0.1 0.012 0.119-0.006 0.025-0.019-0.012-0.037-0.081-0.031-0.069 0-0.088 0.019-0.037 0.037z"></path>
<path d="M7.925 11.106c0.044 0.019 0.1 0.012 0.119-0.006 0.025-0.019-0.012-0.037-0.081-0.031-0.069 0-0.088 0.019-0.037 0.037z"></path>
<path d="M23.856 11.225c-0.025 0.025-0.15 0.063-0.275 0.088l-0.238 0.044 0.238 0.050c0.244 0.050 0.394-0.019 0.344-0.156-0.012-0.037-0.044-0.050-0.069-0.025z"></path>
<path d="M16.975 11.469c-0.019 0.056-0.038 0.137-0.031 0.175 0 0.044 0.031 0.006 0.063-0.075s0.050-0.162 0.031-0.175c-0.012-0.012-0.038 0.019-0.063 0.075z"></path>
<path d="M24.456 11.481c0.269 0.012 0.688 0.012 0.938 0 0.25-0.006 0.031-0.019-0.488-0.019-0.512 0-0.719 0.012-0.45 0.019z"></path>
<path d="M4.656 11.875c-0.019 0.031-0.013 0.063 0.025 0.063 0.031 0 0.081-0.031 0.1-0.063 0.019-0.037 0.013-0.063-0.025-0.063-0.031 0-0.081 0.025-0.1 0.063z"></path>
<path d="M5.119 13.262c-0.031 0.056-0.031 0.3-0.006 0.269 0.050-0.044 0.081-0.281 0.044-0.281-0.019 0-0.037 0.006-0.037 0.012z"></path>
<path d="M4.081 16.806c-0.525 0.231-0.55 0.269-0.144 0.244 0.325-0.019 0.344-0.012 0.362 0.137 0.013 0.1-0.037 0.219-0.125 0.313-0.081 0.081-0.144 0.181-0.144 0.212s-0.1 0.094-0.219 0.144c-0.119 0.044-0.15 0.069-0.063 0.050s0.231-0.050 0.331-0.069c0.175-0.044 0.225-0.125 0.094-0.169-0.044-0.012 0.006-0.012 0.106 0 0.144 0.019 0.169 0.012 0.094-0.038-0.050-0.038-0.063-0.069-0.031-0.069 0.094 0 0.487-0.25 0.45-0.288-0.019-0.019-0.119 0.012-0.231 0.069-0.194 0.1-0.194 0.1-0.131-0.025 0.094-0.169 0.088-0.231-0.031-0.344-0.088-0.094-0.088-0.113 0.050-0.225 0.194-0.163 0.1-0.15-0.369 0.056z"></path>
<path d="M5.594 17.069c-0.369 0.063-0.594 0.169-0.594 0.288 0 0.063 0.050 0.075 0.175 0.044 0.188-0.050 0.763-0.325 0.763-0.369 0-0.019-0.006-0.025-0.013-0.025-0.013 0.006-0.156 0.031-0.331 0.063z"></path>
<path d="M4.75 17.5c-0.050 0.031-0.063 0.063-0.031 0.063 0.037 0 0.106-0.031 0.156-0.063s0.069-0.063 0.031-0.063c-0.031 0-0.106 0.031-0.156 0.063z"></path>
<path d="M13.375 17.813c0 0.031 0.025 0.063 0.056 0.063 0.037 0 0.081-0.031 0.1-0.063 0.019-0.038-0.006-0.063-0.056-0.063-0.056 0-0.1 0.025-0.1 0.063z"></path>
<path d="M10.969 17.969c-0.344 0.038-0.762 0.106-0.938 0.144-0.169 0.038-0.594 0.087-0.938 0.106-1.112 0.075-2.669 0.419-3.469 0.775-0.369 0.163-0.244 0.163 0.219 0.006 0.419-0.144 0.65-0.163 0.375-0.025l-0.188 0.087 0.269-0.025c0.294-0.031 0.331 0 0.125 0.087-0.131 0.050-0.131 0.056-0.019 0.056 0.069 0.006 0.294-0.019 0.494-0.056 0.444-0.069 0.525-0.038 0.169 0.069-0.319 0.094-0.338 0.188-0.019 0.113 0.125-0.031 0.406-0.056 0.619-0.056s0.456-0.025 0.544-0.063c0.319-0.119 0.156 0.044-0.181 0.181-0.506 0.212-0.481 0.275 0.044 0.094 0.25-0.087 0.894-0.269 1.425-0.406s0.981-0.262 0.994-0.281c0.012-0.012-0.063-0.025-0.175-0.025s-0.281-0.044-0.381-0.094c-0.162-0.087-0.175-0.113-0.106-0.219 0.075-0.131 0.194-0.188 0.438-0.212 0.075-0.006 0.194-0.044 0.262-0.081s0.419-0.1 0.781-0.144c0.656-0.075 0.9-0.131 0.494-0.119-0.119 0.006-0.494 0.044-0.838 0.087z"></path>
<path d="M21.125 18.025c0.1 0.1 0.794 0.262 0.863 0.2 0.056-0.063-0.012-0.094-0.363-0.15-0.188-0.031-0.4-0.081-0.469-0.106-0.113-0.044-0.119-0.038-0.031 0.056z"></path>
<path d="M5.612 18.044c0.037 0.012 0.112 0.012 0.156 0 0.037-0.019 0.006-0.031-0.081-0.031s-0.119 0.012-0.075 0.031z"></path>
<path d="M8.594 18.044c-0.563 0.075-2.2 0.413-2.369 0.494-0.244 0.113-0.181 0.1 0.9-0.119 0.431-0.094 1.131-0.206 1.563-0.262s0.813-0.113 0.844-0.125c0.081-0.031-0.694-0.019-0.938 0.012z"></path>
<path d="M19.325 18.119c0.012 0.044 0.044 0.075 0.069 0.075 0.075-0.006 0.056-0.094-0.019-0.125-0.044-0.012-0.069 0.012-0.050 0.050z"></path>
<path d="M2.987 18.356c0.044 0.019 0.1 0.012 0.119-0.006 0.025-0.019-0.013-0.038-0.081-0.031-0.069 0-0.087 0.019-0.038 0.038z"></path>
<path d="M11.344 18.788c-0.344 0.119-0.863 0.269-1.156 0.337-0.781 0.175-1.988 0.531-2.313 0.681-0.325 0.156-0.356 0.163 0.856-0.206 0.506-0.156 1.181-0.344 1.488-0.413 0.787-0.181 1.537-0.413 1.688-0.525 0.162-0.125 0.162-0.125-0.563 0.125z"></path>
<path d="M12.625 18.719c-0.088 0.050-0.125 0.087-0.088 0.094 0.031 0 0.119-0.044 0.188-0.094 0.15-0.113 0.1-0.119-0.1 0z"></path>
<path d="M13.219 18.688c-0.019 0.031 0.006 0.063 0.063 0.063s0.081-0.031 0.063-0.063c-0.019-0.038-0.050-0.063-0.063-0.063s-0.044 0.025-0.063 0.063z"></path>
<path d="M14 18.688c-0.056 0.038-0.063 0.063-0.019 0.063 0.037 0 0.094-0.031 0.113-0.063 0.050-0.075 0.025-0.075-0.094 0z"></path>
<path d="M18.813 18.906c0.094 0.113 0.288 0.125 0.35 0.025 0.025-0.044 0-0.056-0.087-0.031-0.069 0.025-0.144 0.012-0.169-0.025-0.019-0.031-0.069-0.063-0.106-0.063-0.044 0-0.038 0.038 0.012 0.094z"></path>
<path d="M4.931 18.938c-0.094 0.025-0.25 0.106-0.344 0.175-0.1 0.069-0.531 0.319-0.95 0.55-0.769 0.431-1.619 1.069-1.594 1.2 0.013 0.038-0.019 0.056-0.063 0.038-0.119-0.044-1.275 1.169-1.663 1.744-0.181 0.269-0.313 0.538-0.3 0.594 0.019 0.081 0.044 0.063 0.1-0.075 0.131-0.325 0.669-1 1.206-1.512 0.569-0.544 1.138-0.938 2.438-1.675 0.894-0.506 0.956-0.519 1.175-0.256 0.069 0.081 0.063 0.113-0.037 0.188-0.106 0.081-0.106 0.087-0.013 0.094 0.056 0 0.181 0.031 0.275 0.063 0.131 0.050 0.15 0.087 0.1 0.137-0.044 0.044-0.075 0.119-0.075 0.175 0.006 0.081 0.019 0.075 0.088-0.019 0.088-0.119 0.2-0.137 0.256-0.050 0.019 0.031-0.394 0.275-0.919 0.544-1.106 0.556-1.813 1-2.3 1.45-0.444 0.413-0.369 0.419 0.1 0.012 0.544-0.475 0.944-0.719 2.306-1.413 1.244-0.637 1.244-0.637 1.031-0.7-0.119-0.038-0.169-0.069-0.106-0.069 0.206-0.012 0.050-0.119-0.237-0.156-0.269-0.044-0.362-0.125-0.206-0.175 0.037-0.012-0.019-0.113-0.138-0.219l-0.206-0.194 0.244-0.131c0.331-0.175 0.231-0.163-0.181 0.019-0.325 0.144-0.694 0.35-2.119 1.2-0.369 0.219-0.688 0.4-0.712 0.4-0.244 0 1.175-0.962 2.194-1.488 0.981-0.506 1.106-0.594 0.65-0.45z"></path>
<path d="M19.606 19.006c0.113 0.069 0.238 0.119 0.281 0.1 0.044-0.012-0.006-0.069-0.119-0.125-0.281-0.15-0.4-0.131-0.163 0.025z"></path>
<path d="M20.219 19.025c0.069 0.044 0.194 0.106 0.281 0.125 0.144 0.044 0.144 0.038-0.031-0.081-0.1-0.075-0.231-0.131-0.281-0.131-0.063 0-0.056 0.025 0.031 0.087z"></path>
<path d="M22.75 19.256c0.225 0.069 0.444 0.137 0.488 0.15 0.106 0.038-0.087 0.344-0.225 0.344-0.156 0-0.044 0.069 0.525 0.325 0.469 0.206 0.6 0.238 0.988 0.231 0.244 0 0.569-0.025 0.725-0.044l0.281-0.044-0.563-0.262c-0.556-0.256-2.313-0.837-2.519-0.825-0.056 0 0.075 0.056 0.3 0.125z"></path>
<path d="M16.163 19.281c-0.019 0.050-0.006 0.094 0.025 0.094 0.081 0 0.137-0.113 0.069-0.15-0.031-0.019-0.069 0.006-0.094 0.056z"></path>
<path d="M17.231 19.313c0.050 0.2 0.387 0.456 0.488 0.375 0.056-0.050 0.094-0.050 0.125-0.006 0.019 0.038 0.1 0.1 0.175 0.137l0.137 0.075-0.125-0.144c-0.069-0.075-0.212-0.181-0.313-0.225-0.106-0.044-0.244-0.137-0.306-0.206-0.15-0.169-0.225-0.169-0.181-0.006z"></path>
<path d="M25.113 19.231c0.044 0.019 0.1 0.012 0.119-0.006 0.025-0.019-0.012-0.038-0.081-0.031-0.069 0-0.087 0.019-0.038 0.038z"></path>
<path d="M13.981 19.375c-0.256 0.156-0.275 0.194-0.056 0.119 0.188-0.063 0.306-0.163 0.256-0.206-0.012-0.012-0.1 0.025-0.2 0.087z"></path>
<path d="M15.575 19.387c-0.119 0.119-0.088 0.188 0.050 0.113 0.069-0.038 0.125-0.094 0.125-0.125 0-0.087-0.088-0.075-0.175 0.012z"></path>
<path d="M13.031 19.438c0.019 0.031 0.081 0.063 0.131 0.063s0.088 0.031 0.088 0.075c0 0.038 0.012 0.056 0.031 0.038 0.069-0.069-0.050-0.238-0.169-0.238-0.063 0-0.1 0.025-0.081 0.063z"></path>
<path d="M16.938 19.469c0.044 0.050 0.106 0.094 0.137 0.094 0.038 0 0.031-0.044-0.012-0.094s-0.106-0.094-0.137-0.094c-0.038 0-0.031 0.044 0.012 0.094z"></path>
<path d="M10.969 19.85c-0.344 0.181-0.606 0.337-0.588 0.337 0.063 0 1.369-0.625 1.369-0.656 0-0.075-0.2 0.006-0.781 0.319z"></path>
<path d="M19.425 19.581c0.075 0.044 0.119 0.1 0.1 0.125-0.025 0.025 0.075 0.044 0.219 0.044 0.169 0 0.275 0.031 0.294 0.087 0.044 0.119 0.225 0.181 0.275 0.1 0.081-0.131 1.188 0.5 2.706 1.538 0.381 0.256 0.519 0.325 0.581 0.269 0.044-0.038 0.119-0.044 0.156-0.019 0.056 0.031 0.044 0.056-0.038 0.087-0.1 0.038-0.087 0.056 0.094 0.188 0.387 0.275 0.925 0.788 1.331 1.262l0.406 0.475 0.212-0.225c0.2-0.219 0.212-0.25 0.2-0.669l-0.006-0.431-0.369-0.331c-0.231-0.206-0.462-0.356-0.619-0.4-0.494-0.125-1.875-0.756-2.613-1.194-0.2-0.119-0.262-0.131-0.481-0.075-0.231 0.063-0.269 0.056-0.813-0.269-0.313-0.181-0.6-0.331-0.644-0.331s-0.3-0.069-0.575-0.156c-0.563-0.175-0.625-0.188-0.419-0.075z"></path>
<path d="M26.125 19.563c0.050 0.031 0.125 0.063 0.156 0.063 0.038 0 0.019-0.031-0.031-0.063s-0.119-0.063-0.156-0.063c-0.031 0-0.019 0.031 0.031 0.063z"></path>
<path d="M12.369 19.688c-0.194 0.163-0.094 0.163 0.113 0 0.088-0.069 0.131-0.125 0.094-0.125-0.031 0-0.125 0.056-0.206 0.125z"></path>
<path d="M19.081 19.644c0.012 0.044 0.087 0.087 0.163 0.094 0.175 0.025 0.125-0.081-0.056-0.131-0.087-0.019-0.125-0.006-0.106 0.038z"></path>
<path d="M18.738 19.669c0.044 0.019 0.1 0.012 0.119-0.006 0.025-0.019-0.012-0.038-0.081-0.031-0.069 0-0.087 0.019-0.038 0.038z"></path>
<path d="M21.969 20.125c0.238 0.169 1.738 0.925 2.056 1.038 0.225 0.081 0.231 0.081 0.156-0.019-0.081-0.094-0.069-0.1 0.1-0.063 0.181 0.044 0.181 0.044 0.063-0.056-0.387-0.306-1.769-0.906-2.313-0.994l-0.25-0.044 0.188 0.137z"></path>
<path d="M5.75 20.656c-0.156 0.081-0.25 0.15-0.219 0.15 0.037 0 0.188-0.069 0.344-0.15s0.256-0.15 0.219-0.15c-0.031 0-0.188 0.069-0.344 0.15z"></path>
<path d="M19.781 20.563c0.019 0.031 0.081 0.063 0.131 0.063s0.075-0.031 0.056-0.063c-0.019-0.038-0.081-0.063-0.131-0.063s-0.075 0.025-0.056 0.063z"></path>
<path d="M5.006 21.044c-0.55 0.331-1.175 0.856-1.288 1.1l-0.1 0.2 0.144-0.188c0.263-0.344 0.388-0.444 1.237-1.019 0.219-0.144 0.412-0.281 0.431-0.294 0.075-0.075-0.056-0.012-0.425 0.2z"></path>
<path d="M21.719 21.063c-0.025 0.038-0.075 0.044-0.113 0.019-0.044-0.019 0.294 0.313 0.738 0.744 1.069 1.025 1.813 2.069 2.2 3.081 0.081 0.206 0.131 0.294 0.113 0.2-0.025-0.119-0.012-0.163 0.031-0.137 0.038 0.025 0.063-0.094 0.063-0.344 0-0.212 0.031-0.438 0.063-0.506 0.156-0.288-2.044-2.581-2.95-3.063-0.063-0.038-0.119-0.031-0.144 0.006zM22.969 22.063c0.019 0.031-0.006 0.063-0.056 0.063-0.056 0-0.1-0.031-0.1-0.063 0-0.038 0.025-0.063 0.056-0.063 0.038 0 0.081 0.025 0.1 0.063z"></path>
<path d="M21.906 21.813c0.681 0.712 1.394 1.637 2.031 2.619 0.219 0.344 0.413 0.613 0.425 0.6 0.012-0.006-0.050-0.194-0.137-0.406-0.337-0.825-1.288-2.006-2.45-3.031l-0.494-0.438 0.625 0.656z"></path>
<path d="M3.869 21.519c-0.369 0.262-1.119 0.856-1.119 0.894 0 0.019 0.050-0.006 0.112-0.050 0.837-0.625 1.325-1 1.325-1.019 0-0.044-0.006-0.038-0.319 0.175z"></path>
<path d="M8.031 21.606c-0.131 0.031-0.344 0.2-0.344 0.269 0 0.019 0.1 0.087 0.219 0.144s0.219 0.144 0.219 0.194c0 0.050 0.081 0.1 0.181 0.113 0.156 0.025 0.213-0.012 0.406-0.256l0.219-0.288-0.244-0.044c-0.137-0.025-0.3-0.075-0.369-0.106-0.069-0.038-0.131-0.063-0.144-0.063-0.012 0.006-0.075 0.025-0.144 0.038zM8.675 21.931c0.019 0.063-0.031 0.075-0.244 0.038-0.438-0.075-0.513-0.156-0.125-0.144 0.219 0.012 0.35 0.050 0.369 0.106z"></path>
<path d="M21.438 21.637c0 0.025 0.087 0.144 0.194 0.269l0.194 0.219h-0.238c-0.137 0-0.35-0.031-0.481-0.069-0.137-0.038-0.256-0.056-0.269-0.038-0.012 0.012 0.087 0.269 0.225 0.563 0.319 0.681 0.656 1.613 0.831 2.281 0.075 0.288 0.156 0.519 0.181 0.519s0.163 0.038 0.306 0.087c0.144 0.050 0.356 0.094 0.469 0.094h0.212l-0.087-0.219-0.094-0.219h0.175c0.238 0 0.756-0.337 0.756-0.5 0-0.144-0.669-1.15-1.188-1.775-0.381-0.462-1.188-1.288-1.188-1.212z"></path>
<path d="M9.944 22.419c-0.406 0.406-0.794 0.831-0.875 0.944l-0.144 0.206 0.181-0.044c0.094-0.025 0.225-0.044 0.287-0.038 0.075 0 0.194-0.119 0.344-0.369 0.125-0.206 0.406-0.613 0.619-0.9 0.213-0.294 0.369-0.531 0.35-0.531s-0.363 0.331-0.762 0.731z"></path>
<path d="M9.131 22.063c-0.075 0.106-0.162 0.175-0.188 0.163-0.056-0.038-0.269 0.188-0.512 0.525-0.25 0.35-0.256 0.363-0.088 0.325 0.125-0.019 0.156 0 0.156 0.106 0 0.075-0.031 0.2-0.069 0.269-0.056 0.1-0.050 0.144 0.012 0.181 0.156 0.1 0.213 0.063 0.556-0.394 0.188-0.25 0.494-0.613 0.675-0.806l0.331-0.356-0.344-0.1c-0.188-0.056-0.35-0.1-0.363-0.1s-0.088 0.087-0.169 0.188zM8.875 22.381c-0.044 0.069-0.088 0.113-0.106 0.094s0-0.075 0.044-0.131c0.113-0.131 0.144-0.119 0.063 0.038z"></path>
<path d="M23.813 22.469c0.256 0.275 0.738 0.837 1.069 1.25s0.694 0.831 0.806 0.938l0.2 0.188-0.163-0.25c-0.094-0.137-0.231-0.3-0.306-0.363s-0.1-0.1-0.050-0.075c0.056 0.031 0.050-0.006-0.025-0.119-0.069-0.1-0.081-0.163-0.038-0.163 0.288 0-1.019-1.313-1.775-1.788-0.113-0.069-0.006 0.081 0.281 0.381z"></path>
<path d="M20.063 22.212c0 0.044 0.031 0.169 0.069 0.275s0.056 0.231 0.044 0.275c-0.019 0.044-0.081-0.069-0.137-0.25l-0.113-0.331-0.288 0.050c-0.163 0.025-0.394 0.050-0.512 0.050-0.163 0-0.256 0.044-0.363 0.169-0.087 0.1-0.212 0.175-0.3 0.175-0.169 0-0.2 0.094-0.056 0.15 0.181 0.069 0.087 0.131-0.2 0.137-0.169 0.006-0.419 0.031-0.569 0.056-0.231 0.044-0.262 0.063-0.225 0.175 0.031 0.106 0.019 0.119-0.106 0.081-0.387-0.119-0.456-0.125-0.413-0.012 0.038 0.087 0.019 0.1-0.1 0.063-0.075-0.025-0.181-0.056-0.231-0.069-0.050-0.019-0.025 0.025 0.063 0.1 0.181 0.15 0.131 0.169-0.119 0.038-0.1-0.050-0.194-0.075-0.212-0.056s-0.094 0-0.175-0.038c-0.119-0.069-0.156-0.063-0.225 0.038-0.075 0.106-0.081 0.1-0.081-0.038 0-0.081-0.019-0.125-0.044-0.106-0.019 0.025-0.075 0.012-0.119-0.025-0.050-0.044-0.088-0.044-0.119 0.006-0.063 0.1-0.344 0.075-0.344-0.031 0-0.081-0.019-0.081-0.131-0.019-0.106 0.063-0.144 0.063-0.162 0.006-0.019-0.050-0.1-0.063-0.225-0.038-0.113 0.019-0.181 0.012-0.156-0.012 0.094-0.1-0.137-0.219-0.438-0.219-0.169 0-0.394-0.044-0.506-0.1-0.188-0.094-0.331-0.087-0.594 0.012-0.075 0.031-0.094 0.012-0.063-0.063 0.069-0.175-0.031-0.113-0.162 0.1l-0.125 0.206v-0.175c0-0.194 0-0.194-0.219-0.094-0.188 0.081-0.4 0.688-0.412 1.169-0.006 0.156-0.031 0.369-0.063 0.475-0.031 0.125-0.044 0.019-0.031-0.344 0.012-0.294 0.088-0.75 0.162-1.019s0.125-0.506 0.106-0.519c-0.019-0.019-0.231-0.050-0.481-0.081l-0.45-0.044-0.238 0.313c-0.238 0.319-0.4 0.619-0.588 1.063l-0.1 0.244 0.281-0.031c0.219-0.025 0.319-0.006 0.438 0.087 0.2 0.156 0.194 0.212-0.012 0.269-0.25 0.063-0.606 0.219-0.575 0.25 0.019 0.012 0.206-0.025 0.419-0.087 0.506-0.156 0.569-0.094 0.463 0.419-0.075 0.356-0.194 0.519-0.575 0.769-0.088 0.056-0.137 0.125-0.113 0.15 0.063 0.063 0.5-0.131 0.825-0.369 0.188-0.137 0.313-0.181 0.475-0.169 0.119 0.006 0.356-0.050 0.525-0.119 0.338-0.156 0.363-0.144 0.481 0.25 0.056 0.188 0.044 0.269-0.088 0.563-0.275 0.6-0.869 1.275-1.438 1.625-0.563 0.35-0.588 0.425-0.031 0.106 0.581-0.331 1.313-1.087 1.488-1.544 0.044-0.119 0.15-0.294 0.238-0.387 0.2-0.212 0.281-0.163 0.494 0.313 0.194 0.438 0.188 0.781-0.012 0.981-0.269 0.275 0 0.169 0.331-0.125 0.169-0.156 0.331-0.281 0.35-0.281 0.081 0 0.031 0.181-0.156 0.519-0.106 0.2-0.181 0.387-0.169 0.419 0.037 0.113 0.5-0.331 0.619-0.587 0.081-0.175 0.119-0.219 0.119-0.131l0.006 0.125 0.063-0.125c0.050-0.113 0.056-0.106 0.031 0.031-0.012 0.087-0.050 0.225-0.075 0.313-0.044 0.137-0.037 0.15 0.056 0.069 0.056-0.044 0.119-0.175 0.144-0.288 0.044-0.25 0.231-0.469 0.4-0.469 0.063 0 0.137-0.031 0.156-0.063 0.025-0.038 0.063-0.050 0.094-0.031 0.025 0.019 0.069-0.019 0.088-0.075 0.069-0.181 0.162 0.031 0.162 0.375 0 0.331-0.181 0.75-0.375 0.869-0.144 0.094-0.162 0.175-0.037 0.175 0.050 0 0.1 0.031 0.113 0.063 0.012 0.044 0.119 0.044 0.319 0.006 0.456-0.081 0.425 0.025-0.281 1.069-0.063 0.1-0.088 0.175-0.056 0.175 0.037 0 0.113-0.075 0.169-0.175 0.056-0.094 0.181-0.281 0.281-0.425 0.094-0.137 0.25-0.444 0.337-0.669 0.169-0.419 0.337-0.606 0.538-0.606s0.244 0.381 0.081 0.706c-0.056 0.113-0.244 0.35-0.419 0.525-0.369 0.381-0.344 0.431 0.050 0.106 0.369-0.3 0.594-0.756 0.594-1.206 0-0.444 0.063-0.556 0.212-0.387 0.075 0.081 0.113 0.25 0.125 0.544l0.019 0.431-0.375 0.363c-0.206 0.194-0.344 0.356-0.3 0.356s0.256-0.175 0.469-0.387c0.406-0.419 0.538-0.694 0.538-1.156 0-0.137 0.019-0.262 0.038-0.288 0.063-0.056 0.544 0.137 0.7 0.288 0.219 0.206 0.325 0.444 0.325 0.744 0 0.413 0.106 0.206 0.181-0.356 0.1-0.75 0.344-0.887 0.794-0.456 0.113 0.1 0.206 0.156 0.219 0.119s0.113-0.069 0.225-0.081c0.194-0.012 0.194-0.019 0.106-0.188-0.050-0.094-0.181-0.238-0.288-0.325-0.188-0.137-0.481-0.538-0.4-0.538 0.15 0 0.738 0.163 0.925 0.256 0.294 0.15 0.294 0.15 0.25-0.019-0.038-0.144-0.025-0.144 0.738-0.019 0.125 0.019 0.050-0.025-0.194-0.113-0.488-0.163-0.806-0.394-0.981-0.694l-0.125-0.212 0.194 0.056c0.113 0.031 0.325 0.044 0.481 0.025s0.419-0.012 0.587 0.025l0.3 0.056-0.038-0.262c-0.119-0.744-0.956-2.788-1.144-2.788-0.044 0-0.1-0.044-0.119-0.094-0.050-0.125-0.525-0.131-0.525-0.006zM21.144 24.044c0.113 0.056 0.169 0.113 0.125 0.125-0.075 0.025-0.456-0.144-0.456-0.2 0-0.063 0.131-0.031 0.331 0.075zM17.413 26.55c0.262 0.181 0.35 0.669 0.188 1.044-0.081 0.181-0.081 0.181-0.050-0.106 0.038-0.356-0.063-0.625-0.313-0.831-0.181-0.15-0.181-0.156-0.038-0.156 0.081 0 0.175 0.025 0.212 0.050z"></path>
<path d="M10.675 22.231c-0.169 0.019-0.269 0.075-0.35 0.194-0.15 0.225-0.95 1.613-0.95 1.656 0 0.019 0.050 0.019 0.113 0.006 0.131-0.038 0.387 0.319 0.387 0.544 0 0.081 0.113-0.131 0.244-0.475 0.262-0.694 0.444-1.069 0.688-1.438 0.156-0.231 0.244-0.544 0.144-0.519-0.025 0.006-0.15 0.019-0.275 0.031z"></path>
<path d="M3.794 22.475c-0.112 0.125-0.237 0.212-0.325 0.212-0.094 0-0.194 0.081-0.3 0.238l-0.156 0.244 0.244 0.106c0.131 0.063 0.244 0.131 0.244 0.156 0 0.119-0.263 0.369-0.419 0.413l-0.175 0.044 0.175 0.087c0.094 0.050 0.169 0.113 0.169 0.137 0 0.144-0.6 0.575-0.794 0.575-0.081 0-0.144 0.012-0.144 0.019 0 0.012 0.156 0.181 0.35 0.375 0.269 0.269 0.337 0.375 0.288 0.438-0.087 0.106 0.025 0.337 0.237 0.469l0.156 0.1-0.138-0.156c-0.188-0.206-0.181-0.269 0.019-0.219 0.138 0.038 0.15 0.025 0.094-0.069-0.031-0.063-0.219-0.269-0.406-0.469-0.194-0.194-0.35-0.363-0.35-0.381s0.069-0.050 0.156-0.069c0.081-0.019 0.275-0.169 0.431-0.337 0.263-0.269 0.275-0.3 0.163-0.35-0.125-0.056-0.169-0.163-0.069-0.163 0.031 0 0.188-0.125 0.344-0.281l0.294-0.281h-0.181c-0.094 0-0.231-0.038-0.294-0.087-0.112-0.081-0.106-0.087 0.069-0.188 0.1-0.050 0.269-0.169 0.369-0.256l0.188-0.163-0.175 0.069c-0.269 0.1-0.269 0.081 0.025-0.188 0.15-0.131 0.231-0.244 0.181-0.244s-0.175 0.1-0.269 0.219zM3.513 22.844c0.006 0.038-0.087 0.119-0.2 0.181-0.15 0.087-0.194 0.1-0.156 0.031 0.15-0.262 0.344-0.375 0.356-0.212z"></path>
<path d="M26.125 22.337c0 0.012 0.050 0.063 0.113 0.106 0.094 0.081 0.1 0.075 0.019-0.025s-0.131-0.131-0.131-0.081z"></path>
<path d="M1.712 22.95l-0.181 0.206 0.206-0.181c0.106-0.106 0.2-0.194 0.2-0.206 0-0.050-0.050-0.006-0.225 0.181z"></path>
<path d="M7.7 22.975c-0.1 0.038-0.206 0.106-0.231 0.15s0.031 0.031 0.144-0.025c0.269-0.137 0.275-0.131 0.131 0.15-0.194 0.375-0.119 0.35 0.106-0.031 0.2-0.337 0.175-0.381-0.15-0.244z"></path>
<path d="M1.15 23.637c-0.5 0.656-1.163 1.625-1.125 1.656 0.031 0.038 0.856-1.056 1-1.325 0.050-0.106 0.2-0.319 0.325-0.488 0.125-0.163 0.206-0.294 0.188-0.294s-0.194 0.206-0.387 0.45z"></path>
<path d="M26.956 23.581c0.131 0.238 0.369 0.55 0.4 0.519s-0.4-0.663-0.45-0.663c-0.012 0 0.012 0.063 0.050 0.144z"></path>
<path d="M3.875 24.813c0.087 0.025 0.256 0.050 0.375 0.050 0.2 0 0.206-0.006 0.063-0.050-0.088-0.025-0.256-0.050-0.375-0.050-0.2 0-0.206 0.006-0.063 0.050z"></path>
<path d="M11.7 25.525c-0.106 0.238-0.094 0.319 0.075 0.5 0.162 0.181 0.431 0.238 0.287 0.069-0.044-0.050-0.119-0.094-0.169-0.094-0.106 0-0.188-0.181-0.106-0.244 0.037-0.019 0.044-0.119 0.025-0.219l-0.031-0.188-0.081 0.175z"></path>
<path d="M24.881 25.975c0 0.069 0.019 0.087 0.038 0.038 0.019-0.044 0.012-0.1-0.006-0.119-0.019-0.025-0.038 0.012-0.031 0.081z"></path>
<path d="M2.875 26.056c0.031 0.069 0.119 0.144 0.188 0.163s0.125 0.056 0.119 0.081c0 0.025-0.144 0.163-0.313 0.306-0.169 0.15-0.294 0.269-0.281 0.269 0.081 0 0.575-0.281 0.619-0.356 0.025-0.044 0.094-0.081 0.138-0.081 0.138 0 0.119-0.038-0.138-0.281-0.269-0.244-0.438-0.294-0.331-0.1z"></path>
<path d="M24.95 26.313c0 0.087 0.012 0.119 0.031 0.075 0.012-0.038 0.012-0.113 0-0.156-0.019-0.038-0.031-0.006-0.031 0.081z"></path>
<path d="M26.625 26.337c0 0.050 0.025 0.106 0.056 0.125 0.031 0.025 0.044-0.019 0.025-0.087-0.038-0.144-0.081-0.163-0.081-0.038z"></path>
<path d="M12.031 26.581c-0.188 0.3-0.738 0.556-1.225 0.563-0.356 0.012-0.369 0.019-0.181 0.069 0.287 0.087 0.944-0.1 1.375-0.387 0.188-0.125 0.35-0.231 0.363-0.238 0.006 0 0-0.056-0.025-0.113-0.056-0.156-0.169-0.119-0.306 0.106z"></path>
<path d="M3.375 26.781c0 0.050 0.044 0.094 0.094 0.094s0.094-0.044 0.094-0.094c0-0.050-0.044-0.094-0.094-0.094s-0.094 0.044-0.094 0.094z"></path>
<path d="M25.019 26.906c0 0.137 0.012 0.188 0.025 0.106 0.012-0.075 0.012-0.188 0-0.25-0.019-0.056-0.031 0.006-0.025 0.144z"></path>
<path d="M24.781 26.813c0.019 0.031 0.050 0.063 0.069 0.063 0.012 0 0.025-0.031 0.025-0.063 0-0.038-0.031-0.063-0.069-0.063-0.031 0-0.044 0.025-0.025 0.063z"></path>
<path d="M3.112 26.975c-0.331 0.119-0.631 0.275-0.587 0.319 0.019 0.019 0.106-0.012 0.194-0.069 0.294-0.194 0.369-0.1 0.15 0.175-0.231 0.269-0.5 0.406-0.85 0.419-0.206 0.012-0.212 0.019-0.056 0.038 0.256 0.038 0.631-0.069 1.056-0.3 0.375-0.2 0.444-0.3 0.131-0.181l-0.181 0.069 0.169-0.169c0.156-0.156 0.181-0.163 0.431-0.1 0.425 0.106 0.419-0.025-0.006-0.194-0.181-0.069-0.256-0.069-0.45-0.006z"></path>
<path d="M12.725 27.225c-0.325 0.387-1.188 0.756-2.219 0.938l-0.475 0.081 0.494-0.031c0.275-0.019 0.65-0.075 0.831-0.125 0.344-0.087 0.988-0.387 1.287-0.6 0.094-0.069 0.206-0.113 0.244-0.1s-0.031 0.087-0.156 0.169c-0.25 0.156-0.319 0.244-0.088 0.125 0.369-0.2 0.425-0.256 0.344-0.356-0.044-0.050-0.075-0.144-0.063-0.212 0.025-0.15 0.012-0.144-0.2 0.113z"></path>
<path d="M14.787 27.344c-0.069 0.050-0.094 0.094-0.056 0.094 0.044 0 0.094 0.163 0.119 0.356 0.037 0.306 0.056 0.344 0.113 0.244 0.037-0.069 0.119-0.175 0.181-0.238 0.088-0.094 0.088-0.113 0.012-0.113-0.094 0-0.119-0.1-0.1-0.331 0.019-0.131-0.106-0.137-0.269-0.012z"></path>
<path d="M14.306 27.663c-0.081 0.094-0.287 0.231-0.463 0.313-0.169 0.075-0.269 0.144-0.219 0.144 0.169 0.006 0.588-0.225 0.775-0.425 0.106-0.106 0.156-0.194 0.125-0.194-0.037 0-0.131 0.075-0.219 0.163z"></path>
<path d="M2.731 27.856c-0.050 0.094-0.112 0.275-0.138 0.394-0.019 0.119-0.056 0.269-0.075 0.331-0.025 0.1-0.013 0.106 0.094 0.050 0.231-0.125 0.225-0.069-0.019 0.181-0.269 0.275-0.55 0.363-0.844 0.256-0.106-0.031-0.175-0.038-0.156-0.006s0.144 0.087 0.281 0.125c0.2 0.056 0.294 0.044 0.563-0.063 0.175-0.069 0.413-0.125 0.531-0.125s0.231-0.031 0.25-0.063c0.025-0.038-0.050-0.063-0.175-0.063-0.269 0-0.319-0.056-0.194-0.194 0.106-0.119 0.069-0.244-0.075-0.244-0.112 0-0.112-0.194 0.006-0.481 0.112-0.275 0.075-0.35-0.050-0.1z"></path>
<path d="M24.5 27.744c0.219 0.125 0.375 0.144 0.375 0.044 0-0.075-0.063-0.1-0.231-0.1-0.163 0.006-0.206 0.019-0.144 0.056z"></path>
<path d="M4.456 27.794c0.056 0.012 0.156 0.012 0.219 0 0.056-0.019 0.006-0.031-0.112-0.031s-0.169 0.012-0.106 0.031z"></path>
<path d="M10.688 27.938c-0.050 0.031-0.063 0.063-0.031 0.063 0.037 0 0.106-0.031 0.156-0.063s0.069-0.063 0.031-0.063c-0.031 0-0.106 0.031-0.156 0.063z"></path>
<path d="M11.8 28.419c0.044 0.019 0.1 0.012 0.119-0.006 0.025-0.019-0.012-0.038-0.081-0.031-0.069 0-0.088 0.019-0.037 0.038z"></path>
<path d="M4.581 28.544c0.056 0.012 0.144 0.012 0.188 0 0.037-0.019-0.006-0.031-0.112-0.031-0.1 0-0.138 0.012-0.075 0.031z"></path>
<path d="M15.244 28.944c-0.15 0.137-0.219 0.225-0.15 0.188 0.125-0.056 0.519-0.444 0.456-0.444-0.019 0-0.156 0.113-0.306 0.256z"></path>
<path d="M11.781 28.881c0.137 0.025 0.363 0.050 0.506 0.050 0.137 0.006 0.275 0.025 0.294 0.044 0.050 0.050-0.738 0.55-1.137 0.731-0.15 0.069-0.475 0.144-0.719 0.175l-0.444 0.050 0.5-0.019c0.544-0.019 0.781-0.113 1.537-0.6 0.369-0.238 0.681-0.325 0.681-0.188 0 0.031-0.025 0.063-0.050 0.063-0.1 0-0.831 0.7-0.925 0.881-0.125 0.25-0.063 0.225 0.094-0.031 0.075-0.119 0.344-0.375 0.6-0.575 0.256-0.206 0.469-0.387 0.469-0.413 0-0.087-0.887-0.238-1.375-0.231l-0.281 0.006 0.25 0.056z"></path>
<path d="M14.3 29.1c-0.088 0.094-0.506 0.344-0.931 0.563s-0.75 0.394-0.719 0.4c0.131 0.006 1.588-0.75 1.719-0.894 0.2-0.219 0.137-0.275-0.069-0.069z"></path>
<path d="M2.331 29.356c0.112 0.131 0.112 0.137 0 0.2-0.094 0.063-0.087 0.063 0.063 0.031 0.144-0.031 0.169-0.019 0.169 0.087 0 0.075-0.056 0.169-0.125 0.219-0.081 0.056-0.112 0.125-0.087 0.194 0.025 0.063 0.006 0.1-0.044 0.106-0.050 0-0.025 0.025 0.056 0.056 0.194 0.081 0.231 0.219 0.112 0.406-0.144 0.212-0.45 0.363-0.65 0.313l-0.169-0.044 0.156 0.125c0.087 0.063 0.275 0.194 0.425 0.288 0.144 0.094 0.25 0.194 0.231 0.225-0.019 0.038-0.169 0.063-0.331 0.069-0.356 0.006-0.288 0.044 0.2 0.106 0.481 0.056 0.531 0.188 0.087 0.219-0.237 0.012-0.181 0.025 0.2 0.031l0.531 0.012-0.231-0.219c-0.125-0.119-0.237-0.244-0.25-0.275-0.006-0.038-0.175-0.15-0.362-0.25l-0.344-0.194h0.35c0.319 0 0.494-0.075 0.494-0.206 0-0.031-0.038-0.025-0.087 0.012-0.044 0.038-0.131 0.050-0.188 0.031-0.094-0.038-0.094-0.056 0.025-0.163 0.094-0.087 0.125-0.169 0.1-0.275-0.031-0.119-0.019-0.137 0.069-0.113 0.075 0.025 0.050-0.019-0.063-0.125l-0.175-0.163 0.156-0.075c0.181-0.075 0.206-0.169 0.087-0.294-0.069-0.069-0.050-0.075 0.075-0.038 0.1 0.025 0.056-0.019-0.125-0.137-0.45-0.288-0.481-0.306-0.356-0.163z"></path>
<path d="M7.625 29.35c-0.119 0.044-0.3 0.081-0.406 0.087-0.1 0.006-0.325 0.063-0.5 0.131-0.169 0.063-0.237 0.106-0.138 0.087 0.094-0.019 0.244-0.044 0.344-0.063 0.094-0.012-0.1 0.063-0.425 0.169-0.325 0.113-0.544 0.212-0.487 0.225s0.35-0.069 0.656-0.181c0.3-0.113 0.775-0.281 1.050-0.375 0.338-0.119 0.438-0.175 0.313-0.169-0.1 0-0.287 0.038-0.406 0.087z"></path>
<path d="M14.206 30.075c-0.144 0.163-0.294 0.444-0.356 0.675-0.025 0.087 0.056-0.019 0.175-0.238s0.25-0.431 0.287-0.481c0.125-0.15 0.037-0.106-0.106 0.044z"></path>
<path d="M21.594 30c0.119 0.050 0.456 0.087 0.4 0.038-0.012-0.012-0.137-0.038-0.275-0.056-0.175-0.031-0.212-0.025-0.125 0.019z"></path>
<path d="M6.644 30.419c0.094 0.012 0.231 0.012 0.313 0 0.075-0.012 0-0.025-0.175-0.025-0.169 0-0.237 0.012-0.138 0.025z"></path>
<path d="M6.875 30.569c-0.225 0.063-0.506 0.113-0.625 0.119l-0.219 0.006 0.344 0.156c0.612 0.288 1.725 0.35 1.956 0.119 0.081-0.075 0.669-0.281 0.813-0.281 0.031 0 0.025 0.038-0.012 0.081-0.037 0.050 0.075 0.019 0.244-0.069 0.175-0.087 0.306-0.169 0.287-0.181-0.012-0.019-0.387 0.044-0.831 0.131-1.006 0.194-1.544 0.244-1.987 0.194-0.194-0.025-0.338-0.056-0.325-0.069 0.013-0.019 0.188-0.069 0.388-0.119 0.375-0.1 0.65-0.219 0.469-0.206-0.050 0-0.275 0.056-0.5 0.119z"></path>
<path d="M5.8 30.794c0.037 0.012 0.112 0.012 0.156 0 0.037-0.019 0.006-0.031-0.081-0.031s-0.119 0.012-0.075 0.031z"></path>
<path d="M8.544 31.2c-0.238 0.175-0.488 0.413-0.563 0.525-0.094 0.144-0.188 0.212-0.294 0.212h-0.156l0.188-0.15 0.181-0.15-0.319 0.019c-0.181 0.006-0.531 0.081-0.781 0.163l-0.45 0.15 0.744 0.019 0.75 0.012 0.581-0.563c0.319-0.306 0.575-0.563 0.563-0.563s-0.213 0.144-0.444 0.325z"></path>
<path d="M9.438 31.269c-0.456 0.231-0.969 0.569-1.037 0.688-0.031 0.038 0.063-0.006 0.194-0.113 0.137-0.106 0.5-0.319 0.813-0.481 0.631-0.331 0.656-0.406 0.031-0.094z"></path>
</svg>
